<svg id="Layer_1" data-name="Layer 1" xmlns="http://www.w3.org/2000/svg" viewBox="0 0 900.09 464.47"><defs><style>.cls-1{fill:#fff;}</style></defs><path d="M682.52,400.63c-5.39-23.21-18.13-38.78-42.66-41.6-6.67-.76-17.11,3-20.32,6.88,2.92-.49,5.26-.41,7.15-1.29,17-7.9,41.26,3.81,48.58,23.69.74,2,1.4,4.1,2,6.18,2.36,8.38,2.32,8.73,11.14,9.2,13.25.7,26.55.62,39.8,1.36,7.4.42,14.74,1.79,22.09,2.84a2.45,2.45,0,0,1,1.7,1.48c.92,4.13,3.87,3.85,7,3.4,2.62-5,5.22-5.86,12.62-5,7.22.88,14.5,1.3,21.71,2.23,1.87.23,3.59,1.61,5.38,2.46-.11.57-.23,1.14-.35,1.71-1.81.58-3.62,1.63-5.45,1.65-28.61.38-57.23.62-85.84.92-5.17.05-10.33.24-15.49.33-3.28.06-4.61,1.83-6,4.79-4.68,9.87-9.27,19.9-15.25,29-4.87,7.41-13.28,10.86-21.84,13.05-4.66,1.19-9.38,2.12-13.28,3-.68,3.41-.63,6.55-1.91,9-11.68,22.2-25.61,42.64-48.84,54.26a131.9,131.9,0,0,1-31.13,11.35c-22.63,4.91-45.19,1.83-67.79,1.42-19.14-.34-38.39.3-57.41-1.52-12.47-1.19-22.48,4.39-33.31,7.67-14.3,4.32-28.33,9.67-42.17,15.32-10.31,4.2-20.41,8.82-31.45,10.85a5.66,5.66,0,0,0-.91.41c-7.28,3.07-14.49,6.31-21.87,9.13-8.36,3.21-16.91,5.93-25.3,9.08a81.78,81.78,0,0,0-8.74,4.47c-.43.23-.85.94-1.14.87-7.85-1.82-13.42,4-20,6.21-14,4.78-27.42,11-41.34,15.83a342.46,342.46,0,0,1-34.7,10.09c-21.49,5-43.4,4.68-65.12,2.17-8.9-1-17.45-5.19-26.14-8-3.62-1.15-7.27-2.21-10.78-3.64-2.84-1.15-5.35-3.22-8.24-4.1-3.88-1.17-8-1.57-12.18-2.34.2-.45.83-1.82,1.72-3.77-7.11-1.34-10.1-11.07-19.28-8.09-1-6.51-6.68-9-11-12.87-1.69-1.48-2.59-3.82-4.13-5.51-8.12-9-16.64-17.57-24.4-26.83-4.57-5.44-7.71-12.06-12-17.77-2.73-3.65-5.85-7.53-9.7-9.73a116.18,116.18,0,0,1-38.46-35.66c-7.67-11.14-14.91-22.59-18.65-35.56-3.57-12.36-8.49-24.47-8.67-37.71-.13-9.57-2.18-19.23-1.37-28.68,1.37-15.93,3.6-31.88,9.69-46.93,1.73-4.25,3.31-8.57,5-12.82C-77.74,312-63.29,294.5-46.5,279c5.56-5.14,13.27-7.93,19.84-12.05,2.69-1.69,5.54-3.63,7.35-6.15,20.63-28.8,44.78-54,76.53-70.38,27.2-14.05,56.59-19.9,87.31-19.5,22.26.28,42.66,7.28,62.91,15.43,6.31,2.53,13,4.17,19.3,6.66q38.52,15.1,76.93,30.49c21.15,8.41,42.19,17.14,63.49,25.18,10.79,4.07,22.12,6.7,33,10.43,5.42,1.86,10.32,5.3,15.78,7a107.21,107.21,0,0,0,18.44,3.62c7.62.95,15.3,1.46,23,1.84,4.1.2,8.24-.41,12.37-.46,12-.14,23.94-.35,35.91-.25,23.94.2,48,.58,70.32,10.62,17.08,7.68,32,18.91,42.85,34.28,7.37,10.38,13.11,21.91,19.48,33,.46.8.11,2.07.14,3.12A21.38,21.38,0,0,1,635,351c-.52-.21-.85-1-1.16-1.57-4.83-8.91-9-18.24-14.67-26.61-4.11-6.1-9.65-11.46-15.33-16.22-8.25-6.91-16.56-14.26-26-19.06-9.17-4.64-19.68-7.38-29.91-8.95-11.56-1.79-23.74-3.22-35.15-1.48-23.85,3.64-44.86,14.24-61.42,32.35-3,3.33-8.24,5.48-7.62,11.36-6.61,5.05-10.65,12.06-14.2,19.29a166.23,166.23,0,0,0-16.65,58.49c-1.81,19.57.41,38.41,5.33,57.3a120.16,120.16,0,0,0,29.08,52.2c11.87,12.64,27,22.15,44.94,25.23,2.11.37,4.16,1.09,6.52,1.73,1.58-4.21-.87-6.91-3.64-8.77-3.69-2.49-8-4.1-11.86-6.3-18.09-10.21-34.1-22.72-43.21-42-5.59-11.83-10.6-23.94-15.35-36.13-1.45-3.71-1.4-8.08-1.65-12.17-1.12-18.29-2.38-36.68,3.11-54.51,3.27-10.61,6.46-21.56,11.87-31.12,14.46-25.55,35.61-43.65,64.25-51.9a191.39,191.39,0,0,1,25.32-5.6c4.81-.69,10,.19,14.86.91,23.31,3.4,43.24,13.12,59.22,30.92a136.71,136.71,0,0,1,22.75,34.42c1.58,3.43,3.79,3.72,6.8,3.21a44.93,44.93,0,0,1,22,1.44c18.17,5.86,26.12,20.06,31.94,36.32.65,1.82-.3,4.21-.51,6.33ZM-52.66,372.77c6.55.38,12.33.75,18.12,1s11.88.23,17.78.79c5.45.52,11.29-.46,16.19,3.05a18.65,18.65,0,0,1-5.51.51c-14.14-.45-28.27-1-42.41-1.32-1.76,0-3.55.71-5.33,1.09l.17,2.07a55.84,55.84,0,0,0,6,.84c12.25.42,24.51.73,36.76,1.14a6.44,6.44,0,0,1,3.65.94C-5,384.77-3.11,387-.86,389.29H-21.58l3.82-3.41c-3.74-2.5-31.26-2.07-36.32.94,4.28,1.82,8.89.85,13.38.88,4.81,0,9.62,0,14.44,0l0,2.13-27.83,1.23,0,2.08c2.59.25,5.19.67,7.79.69,7.15.07,14.35-.52,21.46.07,6.56.55,12.89-.11,19.43,4.61s11.55.85,13.82-6.95l-3.67-2.49c2.37-2,6.41-3.9,6.31-5.54-.67-10.16,3-20.32-.4-30.52-1.39-4.19-1.16-8.91-1.78-13.37-.11-.74-1-1.37-1.14-2.11-.34-2.44-1.46-5.4-.5-7.24a53,53,0,0,1,8.27-11.69c8.51-9.11,17.82-17.51,25.93-27C47,285.16,53.21,278,55.23,270.06c2.13-8.35,6.18-13.17,12.63-17.82,11.21-8.06,22.73-16.24,29.3-28.8,3.54-6.77,8.4-9.28,15.35-9.47a28.12,28.12,0,0,0,6-.36c4.52-1.14,9-2.6,13.41-3.93l0-2.36c-5.43-1.78-10.84-3.65-16.31-5.32-11.25-3.43-22.92-5.83-33.67-10.43-6.93-3-12.17-2.19-18.27.84-14.14,7.05-26.2,17-38.32,26.85-26.21,21.41-45.25,48.07-58,79.22-4.87,11.91-9,24.18-12.74,36.5-2.94,9.61-5,19.5-7.11,29.33C-53.14,366.94-52.66,369.79-52.66,372.77Zm521.13,50.61c-3.82.64-6.73,1.33-9.67,1.58-3.52.31-4.78,2.24-4,5.36.84,3.47.38,8.69,5.68,8.44,7.59-.35,15.15-1.66,22.69-2.82,1.64-.25,4.39-1.5,4.45-2.43.25-4,3.15-4,5.78-4.7,4.86-1.26,9.69-2.66,14.59-3.79,1.19-.27,2.57.41,3.87.44,6.78.2,13.89,1.68,20.27.16,8.39-2,16.4-3.36,25-1.93,4,.68,8.31.12,12.44-.24,3-.26,4.88-1.91,4.32-5.36s-2.39-7.62-1.36-10.7c2.68-8.11,1.82-17.33,7.62-24.48,1.55-1.91,2.51-4.3,3.76-6.46,2.11-3.64.83-5.91-2.85-7.35-10.8-4.24-21.61-8.45-32.35-12.81-19.18-7.79-38.38-15.54-57.42-23.64-4.65-2-7.62-.61-10.43,2.7-19.73,23.19-28.88,50.07-27.93,80.43.11,3.77,1.66,6.06,6.1,4.48C462.37,419.07,465.4,419.89,468.47,423.38ZM382.15,279.8a42,42,0,0,0-21.58,1.36c-22.74,7.9-43.29,19.14-56.42,40.7-7.36,12.09-14.8,24.05-17.69,38.19-.52,2.54-1.25,5.23,2.47,5.78,9.14,1.33,18.3,2.48,27.44,3.78,3.74.53,5.87-.78,7-4.54,1.24-4.07,3.14-7.94,4.75-11.9s5.74-6.8,5.29-12c-.13-1.54,2.77-3.29,4.14-5.05.91-1.16,2.3-2.55,2.24-3.77-.29-5.54.89-6.87,7.75-7-9.66,15.72-17.42,31.87-19,49.46h17.75v2.44c-3.83,0-7.69-.25-11.49.09a12.13,12.13,0,0,0-6.49,2.29c-.63.54.85,3.66,1.47,5.57.18.54.73,1,2.26,2.89l-7.06,3.1,1.38,2.69c2.33-.13,4.67-.33,7-.37,3.57-.07,7.14,0,10.43,0,2.55.48,4.42,1,6.32,1.14s4.06.5,5.52-.31c.83-.45.48-3,.69-4.67.17-1.34.05-2.85.64-4,2.25-4.32,5.53-2.93,8.62-.93,2.33-5.86.53-7.92-8.88-9.48l6.35-6.7c1.06,5.84,4.31,5.57,7.54,5.36,3.79-.25,6.12.83,5.52,5.34-.19,1.43.62,3,1,4.63,1.83-3.53,3.34-6.45,4.86-9.37l5.76,7.81c.65-2.41,1.53-5.16,2.1-8,.72-3.63.3-7.82,2-10.83a52.3,52.3,0,0,0,4.71-10.65c4.66-14.94,13.64-27.78,22.39-40.82-6.56-4.33-14.25-1.82-21.73-1.63-1.42,0-3.6.33-4.12-.41-1.73-2.46-5.59-3.6-6.28-5.1-3-6.43-8.72-4.29-13.76-5.94l-25,23.19c-1.66-3.45.14-6.32,2.65-9C360.93,302.28,371.2,291.41,382.15,279.8ZM212.87,300.28c-3.36,4-5.48,2.12-7-1.15-1.76-3.75-3.07-7.71-4.94-11.41-1.62-3.21-1.29-6-.08-9.32a29.72,29.72,0,0,0,1.87-11c-.31-8.5-1-16.87,2.67-25,1.3-2.9.2-5.47-3.68-5.85A6.47,6.47,0,0,0,201,238c-.87,4.12-4.08,6.29-7.52,5.56-1.9-.41-3.74-4.1-4.41-6.62-1-3.64-.86-7.56-1.18-11.36-.39-4.75-2.86-7.23-7.59-7.31-.78,5.31,3.07,11-.08,17-1.9-6.78-3.52-12.49-5.08-18.22-1-3.65-2.81-4.78-6.62-3.21a150.89,150.89,0,0,1-15.93,5.43c-3.66,1.05-5.18,2.81-4.66,6.77,1.5,11.53,3,23.07,4,34.64a9.88,9.88,0,0,0,4.94,8.38c4.22,2.79,8.54,6,11.43,10.08,7.49,10.5,11.63,22.74,14.77,35.09,4.21,16.51,7.47,33.26,11,49.92.58,2.72,1.4,4.46,4.37,5.73,5.68,2.43,10.84,1.95,16.28-.9-1.3,2.63-3.37,4.49-4.19,6.8s-1.05,5.24-.13,7.26c.7,1.54,3.74,3.05,5.52,2.83,3.93-.49,7.72-2.09,11.82-3.32l-3-6.51c4.5-.95,8.58-1.67,12.56-2.76,1.12-.3,1.94-1.7,2.9-2.6-1.24-.59-2.49-1.67-3.73-1.68-1.95,0-3.88.83-5.84,1.09a34,34,0,0,1-4.4,0c6.13-8.83,12.7-3.8,19.4-.83-1.23-2.17-2.16-3.76-3-5.38-2.58-4.75-5.56-5.59-10.42-3.21a70.27,70.27,0,0,1-7.42,2.53,22.67,22.67,0,0,1,2-2.27c6.22-4.81,12.16-5.58,19.85-1.9,8.31,4,14.27,16,7.34,21.2-10.33,7.78-3.26,13.51-.45,20.17.48,1.13,1.7,2,2.65,3,1.16-3.15,2.06-5.6,3.41-9.25l1.62,5.6,5-1.67c-.65-2.21-1.12-3.83-1.63-5.55,8-.78,8-.78,8.67-8.66a6.08,6.08,0,0,1,.15-1.49c1.47-4.35-.31-6.88-4.34-8.6-3.44-1.47-6.28-3.69-6.83-7.88-.94-7.23-1.9-14.46-3.1-21.65-.21-1.21-2.19-3.3-2.46-3.17-4.83,2.38-5.29-2-7.28-4.27-1.23-1.4-3.89-3.37-4.76-2.9-2.64,1.39-4.72,3.84-7.18,6l3.15,2.22c-1.19.76-1.93,1.59-2.75,1.68-5.43.63-10.91.94-16.33,1.68a66.24,66.24,0,0,0-12.11,2.58c-1.4.46-2.17,2.82-3.23,4.31,1.51.6,3,1.63,4.52,1.68,2.29.08,4.6-.59,6.91-.83,4.1-.43,8.2-.77,12.3-1.15l.25,1.78a39.53,39.53,0,0,1-4.25,1.09c-5.1.71-10.22,1.28-15.33,2-2.77.39-5.52,1.41-8.26,1.37-4.4-.06-5.06-3.38-5.22-7-.15-3.39.75-5.27,4.58-5.55,4.46-.34,8.88-1.26,13.3-2,3.36-.59,6.69-1.34,10-2L224.6,340l-15.85.86-.22-1.55,29.16-4.59-.35-1.68H223.87c-4.44,0-7.08-2.46-8.5-6.42s-2.94-7.75-4-11.74-4-8.79,3.63-9.81ZM490.16,518.71c-.78-2.78-.91-4.6-1.75-6-3-5-6.36-9.73-9.27-14.75-.93-1.59-.87-3.76-1.3-5.65-.32-1.39-.27-3.16-1.12-4.08-12.08-12.91-19.14-28.52-24.4-45.09-4.67-14.75-7.12-30-5-45.28,2.33-17,6.38-33.8,16.12-48.66,11.71-17.86,25.24-33.43,46.23-40.54,21.23-7.2,42.59-10.62,64-.83,5.38,2.46,10.49,5.54,15.67,8.42,2.06,1.15,4,2.53,6,3.8l1-1.4c-3.17-2.64-6.31-5.3-9.5-7.92C575.68,301.63,563.15,295,548.94,293c-9.08-1.27-18.5-.25-27.77,0a72.06,72.06,0,0,0-33.36,9c-23.1,13-41,31.49-51.05,56.57a136.68,136.68,0,0,0-7,80c2.24,10.7,7.1,21,11.55,31.07C450.92,491.56,467,507.38,490.16,518.71Zm-327.62-62a9.15,9.15,0,0,0,.26-2.14c-2-13.29-3.92-26.6-6.27-39.83A10.65,10.65,0,0,0,146.26,406c-9.1-.11-18.2.19-27.3.41-.75,0-1.46.72-2.21,1a33,33,0,0,1-5.81,2.41c-16.31,3.57-32.65,7-49,10.48-3.63.78-7.22,1.74-11.48,2.78,5.6,5,11.71,5.53,18,4.46q20.76-3.54,41.44-7.51c7.31-1.4,14.52-3.33,21.82-4.8,8.25-1.67,12.59.73,14.61,8.37,1.72,6.52,2.91,13.17,4.34,19.77l-1.31.92c-.81-1.11-2-2.11-2.37-3.34-1.17-3.8-2.16-7.67-3-11.56-1-4.84-3.7-7.24-8.81-6.5-13.3,1.92-26.62,3.65-39.88,5.75-6.55,1-13,2.72-19.48,4.11l.06,1.69a35.33,35.33,0,0,0,4.74,2.34c10.48,3.41,21,6.73,31.52,10.06a19.91,19.91,0,0,0,2.44.5c8.52,1.56,17.1,2.89,25.55,4.77,4.33,1,7.93,1.67,9.06-5.63C152.7,452.55,155.39,457.91,162.54,456.69Zm-33-205.09-1.74.85c1.12,3.19,2.59,6.3,3.28,9.58,2,9.73,7.49,18.22,9.39,28.14,1.19,6.19,2.47,11.82.19,17.79-1.34,3.51-.52,6.47,1.87,9.21a48.8,48.8,0,0,1,11,22c3.56,15.71,6.24,18.81,19.76,26.39,3.23,1.81,7.16,2.47,10.84,3.34,2.71.65,4.27-.71,3.75-3.58-1.52-8.48-2.52-17.12-4.88-25.36-5-17.34-10-34.72-16.34-51.59-4.13-11-10.6-17-21.9-17.36-7.86-.27-7.87-.22-10-8.25a16.58,16.58,0,0,0-.88-3.36C132.53,256.72,131,254.18,129.55,251.6Zm-67.11,136-5.06.38-.51-1.53C60,385,63.24,383.65,66.29,382a10.24,10.24,0,0,0,3.82-3.41A22.39,22.39,0,0,0,72,372.92c1.75-6.53,2.53-13.53,5.47-19.45,2.31-4.64,3.91-9.08,4-14.06.2-9.87-2.42-18.8-10.13-25.47-1.51-1.31-4.37-2.27-6.2-1.79-6.49,1.68-12.54,4.45-16.32,10.55C43.73,330.9,38.52,339,41,349.46a4,4,0,0,1-.29,2.44c-5.82,12.93-4.61,26.38-2.44,39.7,1.13,6.89,3.62,13.52-1.07,20-.09.12.26.55,1,2,2.13-2.49,4.29-4.38,5.64-6.74a45,45,0,0,0,4.35-10A83.3,83.3,0,0,0,50.56,384c.25-2.09-.76-4.32-.52-6.41.75-6.7,2.22-13.33,2.63-20,.29-4.58,1.38-7.89,7.28-9.78-1.65,4.67-3.11,8.44-4.29,12.3a14.17,14.17,0,0,0-.28,4.61c.08,1.92.85,3.94.47,5.75a77.72,77.72,0,0,1-3,9.11l3.5,2.12c-1.11,6.51-.91,13-5.93,17.78a2.2,2.2,0,0,0-.5,1.83,15.82,15.82,0,0,0,1.94,3.08Zm218-36.48c4.32-6.35,10-11.72,5.66-20-1.72-3.3-2.3-7.26-3-11-1.48-7.67-1.37-7.69,5.72-11.38,4.6-2.4,5.05-4.24,2.15-8.5-4.18-6.15-8.47-12.24-12.42-18.54-2.81-4.49-4.77-9.55-7.81-13.87-1.75-2.49-4.78-5.52-7.41-5.69A81.22,81.22,0,0,1,230.64,253a18.49,18.49,0,0,0-4.69-1.62,3.77,3.77,0,0,0-2.76.53c-4.32,3.39-5.2,12.58-2.39,17.52a106,106,0,0,1,7.69,16.1c1.26,3.48,2.73,7.82-2.5,10.34-.86.42-1.24,2.84-1,4.22a33.53,33.53,0,0,0,2,6.13c3,8.45,4.91,9.32,12.24,6.6.38-3.32.35-6.13,1.2-8.66.27-.81,4.1-1.31,4.14-1.19,1.09,3.09,1.9,6.28,2.6,8.9,7,1.59,14.46,3.63,22,4.8,3.65.57,5.37,1.92,5.9,5.37,1.27,8.34,2.56,16.68,3.94,25A24.85,24.85,0,0,0,280.41,351.17ZM-43.37,311.59l-10.19-.84c-.41-5.42-3.95-8.38-7.41-6.33a14.46,14.46,0,0,0-6.94,15.15c-6.25,1.64-6.53,2-8.45,8.24-.43,1.4-.82,3.23-1.86,4-6.61,4.72-7,12.51-9.61,19.16-.54,1.39.62,4.87,1.71,5.23,7.82,2.55,15.79,4.67,23.78,6.66,4,1,5.66-1.48,6.34-5.07.88-4.55,1.79-9.09,2.9-13.59,1.27-5.11,3.64-10.1,4-15.24.38-6.12-.42-12.15,5.88-15.89A7.42,7.42,0,0,0-43.37,311.59Zm479.28,8.74c-.42-.65-.84-1.3-1.27-1.95-2.05,0-4.1,0-6.16,0-8.32.13-11.52,7-15,12.52-5.4,8.7-9.66,18.12-14.47,27.19-1,1.83-2.23,3.5-3.37,5.23,2,7.48-4.31,14.51-1.72,23.5l8.45-6.05,3.61,4.05a60.88,60.88,0,0,0,2.49-6.1c.58-2.05.45-4.34,1.21-6.29,2.55-6.51,5.48-12.88,8-19.4.82-2.1.76-4.53,1.27-6.78a11.15,11.15,0,0,1,1.44-3.82C425.53,335,430.74,327.69,435.91,320.33Zm283,91,0-1.84c-3.5-.52-7-1.26-10.52-1.53q-26.08-2-52.21-3.74c-12.09-.81-24.19-1.56-36.31-2-1.89-.06-3.85,1.7-5.79,2.62,1.42,2,2.45,5.1,4.34,5.77A38.76,38.76,0,0,0,631,412.73c11.65,0,23.3-.63,35-.7,15.12-.08,30.23.19,45.34.19A62.67,62.67,0,0,0,718.89,411.35ZM107.32,257.9l.05,1.59a18.16,18.16,0,0,1,3,1.35c1.28.88,3.59,2.41,3.4,2.92a9.6,9.6,0,0,1-3.41,4.42c-.84.56-2.64,0-3.92-.43-1.87-.56-3.66-1.4-5.49-2.12.11,2,.16,3.95.35,5.92A16,16,0,0,0,102,275c2.49,7.58,5.51,14.69,14.27,17.12,6.79,1.88,12.82-1.63,13.39-8.55a114.82,114.82,0,0,0,0-18c-.35-4.65-3.09-8.54-8-8.86C117,256.39,112.12,257.44,107.32,257.9ZM220.14,454.82c-6.37.67-9.63,2.11-9.27,7.75.11,1.65-1.41,3.41-2.18,5.12l-4.13-4.1c-2.14,2.5-1,8.84-8.54,7.53.84,4.52.74,8.68,2.42,11.91,2.19,4.17,5.59,7.81,8.9,11.26,1.35,1.4,4.36,2.86,5.72,2.26,2.88-1.27,7.1-1.86,7.09-6.57C220.12,478.47,220.14,467,220.14,454.82ZM126.29,251.47l-6.78-5.15,11.4.58c-.34-6.19-7.73-14.19-13.62-15.93-4.34-1.27-8.48-1.85-10.91,2.58-4.21,7.69-11.21,12.53-17.28,18.35-1,1-2.08,3-1.8,4.18.66,2.77,2.14,5.35,3.9,9.43,2.54-6.05,3.51-11.34,9.47-14,6.47-2.87,11.13-5.1,16-3.48-4.45,1.47-8.32,2.58-12.07,4-6.16,2.37-7.57,4.14-6.79,8.78C104.94,251.64,115.05,251.44,126.29,251.47Zm7.36,100.77c-3.47-5.53-10.75,2.51-13.77-4.59l9.67-2.49a4,4,0,0,0-3-1.52c-2.49-.06-5-.15-7.48,0-4.95.36-6.07,2-5.57,7.11.63,6.51,1.12,13,1.73,20.3-9.36-2.88-2.43-12.1-8.38-16.52-2.3,4.39-4.63,8.63-6.77,13S99,381,101.49,382.59c3.45,2.14,10.2-.89,13.83-6.27,3.16-4.69,6-9.86,13-8.94.2,0,.49-.7,1.17-1.72l-5.87-2.33-.3-1.14,9.37-2.37,0-1.65-9.45-1.87-.3-1.24Zm3,.53,1.41-.21a22.93,22.93,0,0,0,.79-2.61c1.36-8-.54-15.59-2.71-23.17-2.06-7.23-2.64-7.55-9.57-5.42a14.59,14.59,0,0,1-3.89.58,44.75,44.75,0,0,1-22-5.49c-2-1-4-1.89-6.06-2.83l-1.13,1.31c3.41,3.86,6.26,8.54,10.39,11.35,3.82,2.62,6.24,4.41,4.43,9.36-.39,1.09,1,3.64,2.23,4.28s3.49,0,4.69-.86c1.53-1.13,2.41-3.12,3.63-4.69,1.79-2.31,4.44-3.42,6.26-.91C129.52,339.5,138.69,342.58,136.61,352.77ZM590.14,430l3-.32c-6.69-11.48-4.72-23.25-1.25-34.09s9.94-20.95,15.3-31.79c-1.53.59-3.61.94-5.15,2-17,12.22-25.23,28.62-22.87,49.76.67,6,2,8.08,5.43,10,.16-2.66.3-5.07.44-7.47l.9,0Zm-359.94,1.8c2.62-.26,5.71,0,8.31-1,1.47-.57,3.4-3.71,3-4.83-2.19-5.5-2-12.61-9.63-14.94-1.63-.5-3.55-3.89-3.3-5.66.29-2.14,2.43-4.46,4.38-5.8,1.78-1.22,4.39-1.27,6.64-1.8,2.73-.63,3.64-2.36,2.41-4.77-1.64-3.25-3.18-6.89-8.18-4.42a8.06,8.06,0,0,1-4.87.4c-7.5-1.56-11.23,3.6-15,8.4-1.82,2.29-1.47,4.76,2.14,4.53,4.13-.27,6.74,1.5,8.23,5a41,41,0,0,1,2,7C227.56,419.57,228.78,425.28,230.2,431.76ZM85,362.77c-.89,2-1.86,3.41-2.15,5a81.16,81.16,0,0,0-1.21,9.95c-.09,1.43.55,2.9.85,4.34,1.31-.76,3.6-1.36,3.77-2.33,1-5.44,3.86-9,9-10.9a2.73,2.73,0,0,0,1.18-1.54c2.44-6.1,6.8-12.39,3.45-18.9-3.2-6.2-8.26-11.45-12.53-17.09-.09-.12-.6.09-.38.05-1.29,7.16-2.17,14.2-3.94,21C82,356.39,81.55,359.77,85,362.77Zm8.51,89.6c-.23-1.39-.46-2.77-.68-4.11l-2,.33-5.53-6.37-3.12,4.53c-.22-2.06-.35-3.28-.43-4.08-3.62-1.32-6.91-2.68-10.3-3.73-5.9-1.85-11.86-3.47-17.78-5.27a3.84,3.84,0,0,1-1.95-1.48c-2.28-3.61-5.09-3.49-7.75-1.38-5.59-9-14.89-12-23.32-16.27-.54-.27-2,1.32-3,2,12.48,7.82,21.93,19,35.32,23.24S78,453,93.54,452.37Zm44.25-92.64c-3,5.66-5.63,10.63-8.17,15.66a5.11,5.11,0,0,0-.43,2.91c1,6.06-1.56,10.94-4.81,15.69-1.58,2.31-2.91,4.78-4.3,7.11,3.79,3.82,14.12,1.79,16.27-2.92a4.39,4.39,0,0,0,.5-1.39c.73-11.24,1.46-22.49,2.1-33.73C139,362.21,138.37,361.32,137.79,359.73ZM87,295.07l-2.23-12.82,1.48-.63c.93,1,2.19,1.82,2.76,3,4.07,8.43,10.72,13.49,19,18,8.7,4.71,16.22,3.06,24.17-.1,1.47-.58,2.21-3,3.29-4.53l-1.13-.91c-9.53,4.65-19.1,6.62-28.85.76-9.4-5.65-13-14.87-15.36-25.59-2.44,7.28-9.38,5.75-14.07,8.17C78.86,285.92,79,293,87,295.07ZM78.7,409.88a67.9,67.9,0,0,0,6.85-1.12c4-1.07,9.91-7.22,9-10.77-1-4.07-3.75-7.76-6.1-11.39-.35-.55-2.75-.16-4,.31-8,3-11,9.31-11.45,17.37C72.81,408.36,74.67,410.13,78.7,409.88Zm58.09-101.81-.5-1.88c-3.74.77-7.46,1.69-11.22,2.28s-7.82,2-11.16,1c-10-2.89-19.69-6.75-29.48-10.27-2.49-.9-4.85-2.31-7.4-2.89-3.89-.88-7.14.25-9.23,4.78,1.71.45,3.14,1.24,4.45,1.08C83,300.91,91.8,305.9,101.09,310a74.14,74.14,0,0,0,19.4,5.58C127,316.4,133.51,315.07,136.79,308.07Zm-82.28-8.84c-3.36,3.66-6.37,7.15-9.6,10.42-5.72,5.8-11.58,11.47-17.37,17.2-2.83,2.79-4.51,5.91-2.7,10.75l3.21-2.73,11.14-9.64c1.37-1.19,2.75-2.36,4.08-3.59,3.13-2.91,6-6.13,9.4-8.73C58.26,308.6,58.88,305,54.51,299.23ZM159.9,410.12c2.29,14.75,4.3,27.91,6.41,41.05.37,2.27.75,4.76,2,6.59,1,1.46,3.24,2.08,4.93,3.07.37-1.72,1.31-3.54,1-5.15-1.65-9.25-3.43-18.49-5.48-27.67a100.76,100.76,0,0,0-4.28-14.09C163.94,412.51,161.88,411.69,159.9,410.12Zm74.24,80.23c-5.7,3.27-11,6.21-16.2,9.35a43.89,43.89,0,0,0-8.23,5.94c-.88.86-.2,3.31-.22,5l4.75-.68c1.89.32,3.95.71,5.45,0a121.33,121.33,0,0,0,10.7-6.3C236,500.18,236.57,498.32,234.14,490.35ZM214.93,276.43c-3.49.67-6.65,1-9.57,2-1.16.4-2.76,2.68-2.48,3.58a109.44,109.44,0,0,0,5.66,14.27c.47,1,3.19,1.93,4.16,1.45,12.05-5.94,12-4.47,6.9-17.23l-3.79.58C215.52,279.55,215.28,278.29,214.93,276.43ZM179.17,389c8.46.05,11-1.95,10.79-8.52-.15-5.06-2.48-6.88-9.59-7.47-5.67-.47-8.91,3.11-9.34,10.33C170.78,387.61,172.66,388.92,179.17,389Zm60.94,45.69.4,1.4h32.2c1.27-9.55-.59-11.34-9.8-9-6.24,1.56-12.42,3.35-18.57,5.21C242.82,432.68,241.51,433.82,240.11,434.65ZM-7.36,404.43c-16.14,1.83-32.38.22-48.58,2.89a9.33,9.33,0,0,0,5.85,2.24c6,0,12-.29,17.93-.33,9.88-.06,19.76,0,29.76,0v-5.7l-25.23-6.88c3.53,1.22,2.65,7.38,8.33,6.72C-15.41,402.91-11.35,404-7.36,404.43Zm64.47,42.45c-.88,1.58-3,3.68-3.08,5.87-.17,3.65-.31,8.6,1.81,10.73,3,3,4.26-2.34,6.44-3.81.2-.13.17-.59.24-.91l-3.24-2.25.25-1H72c1,4.08,2.09,8.33,3.16,12.57,1.46-3.68,1.73-7.57,2.91-11.16s-.27-4.94-3.26-5.69C69,449.77,63.13,448.36,57.11,446.88Zm546.54-9.22-.84.93a8.07,8.07,0,0,0,.77,2.68c6,7.83,12.32,15.55,22.74,17.51a183.33,183.33,0,0,0,18.3,2.12c4.83.42,7.58-2.87,10.47-6.85C634.33,459.49,616.66,455.89,603.65,437.66ZM292.7,310.93c-7-.12-9.18,3-6.88,9.59,1,2.82,1.8,5.7,2.8,8.51,1.12,3.15,3.08,2.87,4.65.6a53,53,0,0,0,5.46-9.49C300.52,315.92,297.07,311,292.7,310.93ZM136.13,460.29l.41-1.62c-5.89-5.17-13.71-5.71-20.87-7.39-5.81-1.36-12-1.16-18.55-1.69-.22,4.14,3.18,4.55,6.28,5.17,6.35,1.28,12.68,2.58,19.06,3.68C127,459.22,131.57,459.68,136.13,460.29Zm7-116.06,2.52,24.19c9-5.83,9.66-6.91,6.62-14.94C150.88,349.74,151.7,343.5,143.16,344.23ZM96.31,332.09c-.43-3.75,0-6.32-1-7.85a148.76,148.76,0,0,0-11.49-14.39c-.83-.92-3.69-1.18-4.77-.46-2.08,1.39-2.6,3.41-.27,5.75,4.34,4.36,8.26,9.12,12.48,13.59C92.24,329.82,93.77,330.44,96.31,332.09ZM23.6,457.74l26.92-1.3-.05-2c-10.33-3.61-20.73,1.82-30.16.58l-4.16,9.32c0,.07.66,1.22,1.4,2.56l2.13-2.59L23,468.87C28.34,465.92,24.32,462.55,23.6,457.74Zm-31.15,2.05c2.23.57,3.34,1.17,4.37,1.06,5.4-.56,10.79-1.21,16.15-2.07.74-.12,1.27-1.59,1.9-2.43-.78-.46-1.58-1.36-2.32-1.31-3.27.23-6.52.73-9.78,1.14l-.41-1.46L14,451.36l-.35-1.94-23.52,2.2c2.15,1.6,3.18,2.82,4.45,3.2s2.85-.06,4.29-.14l.14,1.26ZM259,403.69c-2.79,4.22-1.82,14.9,1.32,17.52.88.72,2.63,1.37,3.45,1,1.51-.75,3.73-2.32,3.7-3.5a33.24,33.24,0,0,0-2-11.6C264.83,405.41,261.43,404.86,259,403.69ZM112.91,187.14l12.14,2.91.24,1.48c-1.63.48-3.41.68-4.83,1.51a10.72,10.72,0,0,0-3.62,3.56c-.33.55.79,2.84,1.15,2.82a10.78,10.78,0,0,0,4.38-1.29c2.95-1.62,5.77-3.49,8.65-5.23,1.25-.75,2.54-1.44,3.81-2.15-1.4-.9-3.25-2.87-4.14-2.51-6.41,2.61-7-3.06-9.57-6.35C118.45,183.56,113.91,182.47,112.91,187.14ZM331.38,287.87c-1.74-3.18-29.52-12.72-34.82-11.25l6.94,3.2c-.29,1.73-.62,3.68-.95,5.62l1,.83c2-5,5.22-4,8.74-2.67A130.27,130.27,0,0,0,325,287.79C326.92,288.29,329,287.87,331.38,287.87Zm10.34-7.28-.12-2.15c-4.39-1.12-8.79-2.16-13.15-3.37-4.14-1.16-8.18-2.79-12.38-3.6-1.46-.29-3.26,1.24-4.9,1.93,1.08,1,2,2.44,3.27,2.81,7,2,14,3.92,21.14,5.45C337.46,282.06,339.66,281,341.72,280.59ZM-92,381.9c-1,1.23-2.47,2.36-2.85,3.78-.3,1.11.5,3.51,1.29,3.75,6.43,1.95,12.92,3.78,19.5,5.1,3.21.64,6.65.11,10,.11l.58-2.43C-73.48,390.3-84.49,390.82-92,381.9Zm760.44,67.83c4.08-10.67,13-18.8,13.27-31.26-7.26,2.7-5.18,10-8.28,14.4-3.3,4.62-6.3,9.45-9.54,14.34Zm-680.77-1.55-.66-1.63c-8.11-.19-9.79.73-11,6.06-4.32,2.07-10.29-2.11-14.7,4.3,4.24,0,7.44.09,10.64,0,4.39-.16,8.78-.47,13.17-.76,1.2-.08,2.39-.3,3.59-.45-.18-1.09,0-2.6-.63-3.16s-2.24-.63-3.42-.69c-1.8-.1-3.62,0-5.43,0l0-1.25Zm399.9-58.69c-3.14.63-7,2.59-8.42,1.46-3.47-2.79-6.92-1.89-10.4-1.73-1.58.08-3.74,1.09-4.42,2.34-.49.9.67,3.36,1.79,4.26.93.75,2.88.37,4.36.27,2.73-.17,5.57-1.11,8.16-.64C385.65,396.73,385.6,397,387.59,389.49ZM-15.94,443.42l1.59,1c.74-1.15,2.06-2.28,2.1-3.45.14-5.25,0-10.52-.23-15.77a7.4,7.4,0,0,0-1.5-4.53c-.68-.7-3.42-.65-3.93,0A7.23,7.23,0,0,0-19,425.59C-18.19,431.56-17,437.48-15.94,443.42Zm-21.79,7.9c3.68-.53,8.28,1.79,9.79-2.68,1-2.78.08-7.12-1.67-9.52-1-1.37-5.41-.24-8.12-.24Zm312.41-83.4c-.53-1.22-.72-2.87-1.64-3.58-3.8-2.93-4.88-6.88-5.11-11.37-.21-4.15-.47-8.31-1.07-12.42-.19-1.33-1.52-2.49-2.34-3.73-.61,1.47-1.9,3-1.71,4.4.8,5.87,2.45,11.64,3,17.52C266.26,364,268.53,367.07,274.68,367.92Zm22.91,138.64A48.45,48.45,0,0,1,303.3,505c1.44-.22,3.94.64,4.24.08.73-1.34.44-3.23.59-5.39-4.31,1-7.78,2.08-11.34,2.61-3.73.56-7.56.5-11.32.93a6.82,6.82,0,0,0-3.6,1.53,24.29,24.29,0,0,0-3,4l4.92,3.34c-.37-2.77-.56-4.15-.79-5.91l5.75,2.2C291.26,503.33,294.35,506,297.59,506.56ZM7.2,427.94c.49,4.5.94,8.54,1.39,12.69H12.8c.28-3.46.55-6.79.75-9.15l7.23,3.31c.86-2.15,1.72-4.3,2.9-7.23-5.16,0-8.81,0-12.46,0C10.08,427.59,9,427.77,7.2,427.94ZM307.68,266.16l-.83,1.5c-2.47-.73-4.91-1.6-7.43-2.12-.93-.19-2.54.15-2.91.78a3.3,3.3,0,0,0,.59,3c5.18,5.76,11.24,4.54,13.39-2.44l6.48-2.06c-4.1-1.53-7.45-2.93-10.9-4-1.18-.36-2.6.08-3.91.16a20.89,20.89,0,0,0,2.32,3.14A18.77,18.77,0,0,0,307.68,266.16ZM539.1,313.27c-.22.3-.43.61-.65.92.29.51.45,1.24.88,1.51,8.82,5.49,17.63,11,26.55,16.27.75.45,2.25-.37,3.4-.6,0-.47.07-.93.11-1.4ZM118,383.14c-2.79,1.17-5.32,1.42-6.19,2.75a163.35,163.35,0,0,0-8.76,15.54c-.59,1.15,0,2.91.07,4.39,1.67-.68,4.2-.9,4.86-2.13C111.36,397.53,114.22,391.11,118,383.14ZM18.27,449.38l-.22,2.27c1.18.39,2.37,1.17,3.54,1.11,2.76-.12,5.51-.78,8.28-.94,5-.3,10,0,14.91-.7,2.67-.37,5.15-2.21,7.71-3.38l-.65-1.31ZM154,466c1.56-.11,2.69.09,3.52-.31a45.85,45.85,0,0,0,4.59-2.89c-1.53-1.14-3-3.07-4.59-3.28a130,130,0,0,0-13.4-.56c-.49,0-1.19-.07-1.43.21-.61.71-1.39,1.62-1.37,2.42a2.79,2.79,0,0,0,1.6,2.09C146.72,464.66,150.62,465.36,154,466Zm18.43-40.44a33.08,33.08,0,0,0,20-3.52c1.2-.63,1.62-2.75,2.39-4.19-1.7-.38-3.63-1.48-5.08-1a130.66,130.66,0,0,0-13.39,5.23C175.22,422.57,174.4,423.77,172.4,425.59Zm11,40.26c.64,1,1.36,3.12,2.81,4.27,1,.8,4.27.75,4.4.37a20.52,20.52,0,0,0,.66-6c0-1.71-.84-3.81-.11-5,.94-1.55,3.13-2.94.52-4.13-2.24-1-5.44-1.39-6.52,2.21C184.43,459.91,184.09,462.37,183.37,465.85ZM219.7,322.12c2.38,6.23,3.11,6.55,9.1,6.29,6.8-.3,13.62-.32,20.43-.49,1.66-.05,3.33-.24,5-.37l.1-1.69c-4.11-.67-8.48-2.57-12.28-1.77C234.28,325.72,226.91,327.62,219.7,322.12ZM260,320.71l.22-2.26c-3-.51-6.11-1.53-9.14-1.42-9,.35-18,1.89-27.21-.36,1.53,1.75,3.36,3.82,5.25,3.88C239.4,320.88,249.7,320.71,260,320.71ZM-21.59,427.07l-.87-1.56-30.71,2,0,1.52a9.56,9.56,0,0,0,2.23.78c8.87.73,17.74-.83,26.63-.15C-23.46,429.73-22.49,428-21.59,427.07Zm197-15.19c3-2.75,6.38-5.51,9.28-8.68.58-.63-.09-3.41-1-4.13s-3.33-.48-4.22.31a72.61,72.61,0,0,0-7.41,8.06,2.8,2.8,0,0,0-.2,2.59C172.2,410.7,173.37,410.91,175.36,411.88Zm132.86-118.2c6.78,5.81,8.74,6.11,11.52,2l-7.19-2.89c.14-.61.29-1.23.43-1.85,2.28.31,4.56.61,6.83.94s4.82,2.78,5.94-1.4C314.17,285.46,312.47,285.76,308.22,293.68ZM34.89,470.52l2.17.09c.69-2,1.38-4.05,2.08-6.07l1.38-.25q1.68,5.26,3.37,10.55l1.81-.39-1.23-13.32c-3.79-.94-8-1.33-10.43,2.55C33.09,465.19,34.53,468.2,34.89,470.52Zm138.28-51.65c6.64-.84,12-3.83,16.9-7.8.8-.64.91-2.12,1.34-3.22-1.28,0-2.73-.34-3.81.13-2.83,1.27-5.47,4-8.24,4.12C174.57,412.24,173.77,414.83,173.17,418.87Zm-252-49.56-.48,1.88c2,.59,4,1.22,6,1.77,4.2,1.15,10.12-.65,10.42,6.55,5.5-2.09,4.23-5.78,3.47-8.64Zm274.65,71.92c-2.72-3.08-11.54-3-17.58.12C181.08,446.21,191.81,446.13,195.82,441.23ZM5.34,435.83h0a17.22,17.22,0,0,1,0-2.49c.43-2.86-1-5.08-3.56-4.62-1.46.26-3,3.06-3.48,5a12.61,12.61,0,0,0,.73,6.35c.35,1.08,2,2.63,2.81,2.47a5.67,5.67,0,0,0,3.33-2.76C5.78,438.73,5.34,437.16,5.34,435.83ZM659,439.34l3.75-14.55-1.64-.5-2.42,3.46L655.94,426C653,436.41,653,436.41,659,439.34ZM204.11,393.22c-2.33-3.91-5-6.78-5.75-10.09s.18-7.24.38-10.88c-5.64,3.37-5,8.12-3.81,13C196,389.71,198.87,392.15,204.11,393.22Zm66.31-70.29c-6.5.07-16.86,9-16.83,14.35C261.23,334.79,265.07,328.54,270.42,322.93ZM-9.88,458.49l-27.61,2.08C-31.62,464.48-12.91,462.91-9.88,458.49ZM164,370c-3.94.77-5.61,2-6.31,5.76-.91,4.87-1.17,10.59-6.94,13.77,2.15.45,5.16.62,5.62-.39C159.13,383.08,161.34,376.77,164,370ZM-3.29,411.13c-4.79,0-9.62-.12-14.41.21-.39,0-1.27,3.41-.68,4.61.86,1.76,14-.51,15.07-2.39C-3.17,413.31-3.29,412.91-3.29,411.13Zm63.63,2.66C56.22,404.17,65,397.48,65.77,389,58.27,395,55.52,406.6,60.34,413.79Zm343.92-22.71c-3.22-.7-5.76-1.6-8.34-1.7a5.38,5.38,0,0,0-4.2,2c-.53.93.23,3.57,1.19,4.13,1.35.79,3.41.47,5.17.42a36.78,36.78,0,0,0,4.5-.75ZM161,363.12c-10.5,4.55-11.3,14.27-15.47,22.25,1.13.14,2.19.47,2.32.25C152.12,378.49,156.27,371.31,161,363.12Zm48.45,58.45,1.34,1.95c3.82-1.83,7.76-3.48,11.39-5.64.82-.48.6-2.73.85-4.16-1.54-.07-3.57-.79-4.54-.08C215.3,416,212.46,418.89,209.48,421.57Zm439.84-1.94c-1.5,4.09-2.37,8-4.33,11.33-1.82,3-4.81,5.39-7.29,8C646.49,437.41,653.76,424.7,649.32,419.63ZM-8.88,442.82c7.45-.49,4.26-6.42,5.55-9.73.34-.86-1.42-2.53-2.21-3.82-1.11,1.19-3,2.26-3.18,3.59C-9.2,435.9-8.88,439.07-8.88,442.82ZM178,433.53l.51,1.71c5.23-1.31,10.46-2.59,15.66-4,.32-.09.62-1.52.38-2.11s-1.25-1.43-1.75-1.33C187.5,428.87,181.44,428.12,178,433.53ZM125.91,201.1c6.5,5,11.9,4.15,13.75-1.91-2.26-.26-4.94.16-6.71-.91C128.81,195.78,127.42,198.06,125.91,201.1ZM68.79,276c.42,4.79.71,9,1.24,13.23A2.77,2.77,0,0,0,71.87,291a2.24,2.24,0,0,0,1.81-1.31c.29-2.76-.08-5.63.49-8.31C75,277.66,73,276.74,68.79,276ZM-31,417.67c.25-.82.5-1.64.76-2.45-1.49-1.4-2.88-3.75-4.49-3.91-1.34-.13-2.94,2.29-4.43,3.58l.62.89-8.47,1.47.16,1.7Zm-16.84,40.71c.68-5.42-2.7-12.08,6-13.16-3.35-1.5-6.51-3.52-9.24.12C-53,447.87-51.28,455.39-47.89,458.38ZM113,296c-8.88-2.59-12.7-10-17-18.06C94.68,286.74,104.28,296.6,113,296Zm-19.5,82c-2.14,4.11.74,10.92,5.25,13.11,3.11,1.51,3.72,1.27,5.57-2.82C96.6,389.2,97.21,381.5,93.45,378Zm348.6-67-.36-1.76-16.2,2.29C429.81,316.3,438.86,315.35,442.05,311ZM624.31,441.9c3.26,5.51,6.48,7.62,11.06,7.7,1.15,0,2.31-.78,3.47-1.2a27.93,27.93,0,0,0-2.75-2.59,13.25,13.25,0,0,0-3.76-2.23C630.06,442.89,627.67,442.58,624.31,441.9Zm-609.4,2.55C1.48,443-1.3,443.6-.74,448.17,4.19,446.51,10.09,450.11,14.91,444.45Zm64.8-258.81c3.49,4.59,6.82,5,10.43,3.05,1.14-.62,1.83-2.06,2.73-3.13-1.17-.64-2.4-1.91-3.51-1.81A89.86,89.86,0,0,0,79.71,185.64ZM5,464c-2.16,0-4,0-5.77,0-.66,0-1.51-.12-1.94.22-.94.74-2.39,1.84-2.29,2.62a4.77,4.77,0,0,0,2.25,3.36C.22,471.52,4.6,468.23,5,464ZM131.18,228c-1.11,2.5.55,7.93,3.38,8.64a4,4,0,0,0,3.29-1.23c1-1.15,1.3-2.82,1.91-4.27-1.14-.38-2.29-.74-3.42-1.15C134.78,229.37,133.23,228.75,131.18,228ZM-30.37,423.05l-.25-2.79-20.59,2L-51,424C-44.12,424.19-37.16,424.72-30.37,423.05Zm5.22,24.26c2.23-1.94,4.21-2.83,4.31-3.91a46.52,46.52,0,0,0-.31-9.79c-.08-.79-1.38-1.44-2.12-2.15-.63.83-1.75,1.63-1.8,2.48C-25.26,437.8-25.15,441.67-25.15,447.31Zm231.51-31.4c3.57-2.15,6.61-3.88,9.5-5.83a2.7,2.7,0,0,0,.61-2.51,2.91,2.91,0,0,0-2.18-1.47C211.2,406,206.56,411.21,206.36,415.91Zm413.42,72.87c5.83-4.9.47-10.67,1.7-16.08C617.66,474.73,617,482.26,619.78,488.78ZM19.29,445.06c11.61,1.76,15.59,1.36,17.7-1.73C30.7,442.42,24.82,441.43,19.29,445.06ZM15.9,343c-3,5.92-1.93,8.81,4.61,12C19.21,350.53,20.78,345.75,15.9,343ZM661,441.6c6,.72,10.11-5.14,9.41-13.1Zm-198.84,1.64c5.69,2.92,9.87,2.24,12.6-2C471,439.36,464.78,440.36,462.13,443.24Zm126-74.87,1.42-3-16.25-6.59-.68,1.41ZM364.54,403.46h15C374.48,398.83,367.93,398.88,364.54,403.46Zm-25.83-2.55-.92-1.05-11.52-1.25c1.79,5.68,5.21,5.9,8.79,5C336.42,403.29,337.5,401.85,338.71,400.91Zm-93.33,4.95-1.57.59c-2,5.3,4.23,8.34,4.46,13.06a25.88,25.88,0,0,0,3.55.41C249.4,414.65,247.39,410.25,245.38,405.86Zm298.74-56.42c.38-.78.76-1.57,1.13-2.35l-15.08-6.78c-.3.65-.61,1.29-.92,1.93ZM351.76,531.23c3,5.75,7.1,7,15.66,4.57ZM141.36,197c2.72,0,4.42-.35,5.88.1,1.62.51,2.92,2.22,4.53,2.53s3.42-.47,6.23-1C151.69,194.71,144.79,193.86,141.36,197Zm580,213.17-.16,1.74,13.09,1.56C731.77,408.58,727.14,407.83,721.39,410.16ZM-4.53,479.41c-1.69-3.26-3.24-6.23-5.19-10C-12.26,477.81-11,480.2-4.53,479.41Zm225.12-52-12.68,3.48.51,1.64C213,433.34,217.31,433.44,220.59,427.45Zm-116.28-90.6c-1.52,2.14-3.28,3.59-3,4.47.48,1.67,2.11,3,3.27,4.48,1.11-1.22,3.14-2.47,3.1-3.65C107.6,340.65,105.89,339.19,104.31,336.85Zm40.21,4.27c3.77-5.52,2.66-9.15-3.28-12.79Zm22.73,36.27-1.29-.53c-3.12,2.55-3,6.34-2.89,10,0,1,1,2,2.23,4.26C166.1,385.45,166.67,381.42,167.25,377.39Zm24.11-151.73c-1.81,8.14-.22,11.45,4.76,11.92C194.49,233.51,192.93,229.59,191.36,225.66Zm-90.52-31.41c3.94,1.56,5.77-1.11,7.43-3.69.28-.43-.73-1.69-1.14-2.57-2.07,1.56-4.16,3.1-6.18,4.72C100.71,192.9,100.87,193.59,100.84,194.25Zm1.28-6.05c-2.29-1.13-3.76-2.33-4.25-2A38,38,0,0,0,93,190.47c.82.8,2.06,2.42,2.38,2.26A69.26,69.26,0,0,0,102.12,188.2ZM-70.24,386.38c-.6,2.5,1.21,3.51,3.94,3.33,5-.32,4-4.09,4.21-7Zm28.54,27.16-.4-2.17c-3.72-.36-7.53-1.32-10.82,1.34l.27,2.18Zm211.69-16L163.63,403c.17.52.33,1.05.49,1.57,1.56-.1,3.42.29,4.6-.42C171.19,402.68,172.44,400.44,170,397.55ZM205.59,408l-.07-3-7.69.59.3,3.39ZM-1.66,424-2.6,422c-1.3-1-2.49-2.22-3.94-2.71-.48-.16-2.5,2-2.31,2.54.58,1.6,1.66,3.51,3.07,4.16C-4.89,426.37-3.07,424.75-1.66,424ZM287.62,256c2.69,4.69,7.26,5.7,12.5,2.67ZM5.22,423.32l-4.25-4c-.89,1-2.67,2.23-2.49,3a6.28,6.28,0,0,0,2.92,3.49C1.9,426,3.42,424.52,5.22,423.32Zm6,38.33-2.77,1.14c.83,2.24,1.67,4.49,2.51,6.73,1-.74,2.87-1.71,2.75-2.17A34.45,34.45,0,0,0,11.2,461.65ZM747.83,412.1c0-.5,0-1,0-1.5h-8.74c0,.75.09,1.49.13,2.24Zm-390.9-11.89-7.37-.33c.09,1.18-.19,3.14.35,3.4C352.36,404.45,354.89,404.67,356.93,400.21Zm34.4,1.15-.11,2.5,6.7.6c.08-1,.17-2.07.25-3.1Zm-69.5-24.61c-1.39-4.31-4.06-4.52-7-3.63-.7.21-1.13,1.36-1.69,2.08.74.51,1.44,1.39,2.22,1.48A64.11,64.11,0,0,0,321.83,376.75Zm92.23-72.22c4.32,4.14,7.4,3.42,10.43,0ZM-24.82,419.62c1.46-2.34,2.87-3.59,2.85-4.82s-1.44-2.49-2.25-3.74c-1,1.37-2.43,2.61-2.9,4.14C-27.38,416.05-26,417.38-24.82,419.62Zm8.45,75.31.18-1.57c-3.39-3.17-6.93.14-10.4.11l0,2ZM532.41,331.5c-.28.57-.57,1.13-.85,1.7l11.54,5.3c.27-.59.54-1.17.8-1.76ZM-48.28,297.75c-6-4.24-7.29-3.84-8.09,3ZM285,444.29l-1.39.46c.9,2.58,1.79,5.17,2.95,8.51C291.21,448,287.18,446.45,285,444.29ZM209.2,386.76l-5.8-9C202.72,384.33,203.75,385.93,209.2,386.76ZM5.4,413.57c-1.78-1.51-2.8-3.06-3.78-3-1.15,0-2.25,1.44-3.37,2.25,1,1.08,1.82,2.66,3,3.06C2.1,416.12,3.47,414.71,5.4,413.57ZM505.16,509.1c.25-.51.51-1,.76-1.52l-12.67-6.93c-.24.48-.49,1-.74,1.43ZM176.81,469l-.53-1.53-4.79.78,1.71,5.05,1.35-.21C175.3,471.75,176.05,470.38,176.81,469Zm107.05-81.73c.42.71.83,1.43,1.24,2.15l5.83-3c-.65-.8-1.68-2.37-1.89-2.27A51,51,0,0,0,283.86,387.29Zm55.37,19.31-1.62.24c-1.57,5-1.1,7,2.65,9.06C339.89,412.53,339.56,409.56,339.23,406.6ZM203.5,401.22c-5.64-3.59-7.39-3.28-9.3.94Zm350.62-69.28c-2.76-5.68-2.78-5.69-7.54-2.08ZM6,484.47l4.72-.85C6,477,6,477,4.68,477.21,5.09,479.4,5.5,481.58,6,484.47Zm145.65-84.25.21,1.6,7.81.77.61-1.19c-.9-.81-1.79-2.28-2.69-2.29C155.64,399.09,153.66,399.81,151.68,400.22Zm-9.94-193.6,6.5-3.11C143.84,199.87,142.9,200.23,141.74,206.62ZM552.8,352.3l8.09,4C560.29,351.52,557.91,350.52,552.8,352.3ZM535.56,324c.66-5.82-.74-6.67-7-4.23Z" transform="translate(101.43 -170.85)"/><path class="cls-1" d="M-52.66,372.77c0-3-.48-5.83.09-8.46,2.14-9.83,4.17-19.72,7.11-29.33,3.77-12.32,7.87-24.59,12.74-36.5,12.75-31.15,31.79-57.81,58-79.22,12.12-9.9,24.18-19.8,38.32-26.85,6.1-3,11.34-3.8,18.27-.84,10.75,4.6,22.42,7,33.67,10.43,5.47,1.67,10.88,3.54,16.31,5.32l0,2.36c-4.46,1.33-8.89,2.79-13.41,3.93a28.12,28.12,0,0,1-6,.36c-7,.19-11.81,2.7-15.35,9.47-6.57,12.56-18.09,20.74-29.3,28.8-6.45,4.65-10.5,9.47-12.63,17.82-2,7.89-8.24,15.1-13.81,21.58-8.11,9.45-17.42,17.85-25.93,27a53,53,0,0,0-8.27,11.69c-1,1.84.16,4.8.5,7.24.11.74,1,1.37,1.14,2.11.62,4.46.39,9.18,1.78,13.37,3.39,10.2-.27,20.36.4,30.52.1,1.64-3.94,3.55-6.31,5.54l3.67,2.49c-2.27,7.8-7.39,11.6-13.82,6.95s-12.87-4.06-19.43-4.61c-7.11-.59-14.31,0-21.46-.07-2.6,0-5.2-.44-7.79-.69l0-2.08,27.83-1.23,0-2.13c-4.82,0-9.63,0-14.44,0-4.49,0-9.1.94-13.38-.88,5.06-3,32.58-3.44,36.32-.94l-3.82,3.41H-.86c-2.25-2.3-4.16-4.52-6.38-6.38a6.44,6.44,0,0,0-3.65-.94c-12.25-.41-24.51-.72-36.76-1.14a55.84,55.84,0,0,1-6-.84l-.17-2.07c1.78-.38,3.57-1.13,5.33-1.09,14.14.36,28.27.87,42.41,1.32a18.65,18.65,0,0,0,5.51-.51c-4.9-3.51-10.74-2.53-16.19-3.05-5.9-.56-11.85-.5-17.78-.79S-46.11,373.15-52.66,372.77Z" transform="translate(101.43 -170.85)"/><path class="cls-1" d="M468.47,423.38c-3.07-3.49-6.1-4.31-9.48-3.12-4.44,1.58-6-.71-6.1-4.48-.95-30.36,8.2-57.24,27.93-80.43,2.81-3.31,5.78-4.68,10.43-2.7,19,8.1,38.24,15.85,57.42,23.64,10.74,4.36,21.55,8.57,32.35,12.81,3.68,1.44,5,3.71,2.85,7.35-1.25,2.16-2.21,4.55-3.76,6.46-5.8,7.15-4.94,16.37-7.62,24.48-1,3.08.76,7.12,1.36,10.7s-1.32,5.1-4.32,5.36c-4.13.36-8.41.92-12.44.24-8.59-1.43-16.6-.08-25,1.93-6.38,1.52-13.49,0-20.27-.16-1.3,0-2.68-.71-3.87-.44-4.9,1.13-9.73,2.53-14.59,3.79-2.63.68-5.53.66-5.78,4.7-.06.93-2.81,2.18-4.45,2.43-7.54,1.16-15.1,2.47-22.69,2.82-5.3.25-4.84-5-5.68-8.44-.75-3.12.51-5.05,4-5.36C461.74,424.71,464.65,424,468.47,423.38Zm32.28-10.49c5.13,3.11,19.09,2,24.31-2.22ZM542.1,410l-.82,1.49c1.55,1.07,3,2.8,4.69,3.05,2.92.44,6.68,1.81,8.31-3.58Z" transform="translate(101.43 -170.85)"/><path class="cls-1" d="M382.15,279.8c-10.95,11.61-21.22,22.48-31.47,33.38-2.51,2.66-4.31,5.53-2.65,9L373,299c5,1.65,10.77-.49,13.76,5.94.69,1.5,4.55,2.64,6.28,5.1.52.74,2.7.44,4.12.41,7.48-.19,15.17-2.7,21.73,1.63-8.75,13-17.73,25.88-22.39,40.82a52.3,52.3,0,0,1-4.71,10.65c-1.71,3-1.29,7.2-2,10.83-.57,2.81-1.45,5.56-2.1,8L382,374.51c-1.52,2.92-3,5.84-4.86,9.37-.38-1.63-1.19-3.2-1-4.63.6-4.51-1.73-5.59-5.52-5.34-3.23.21-6.48.48-7.54-5.36l-6.35,6.7c9.41,1.56,11.21,3.62,8.88,9.48-3.09-2-6.37-3.39-8.62.93-.59,1.13-.47,2.64-.64,4-.21,1.63.14,4.22-.69,4.67-1.46.81-3.66.46-5.52.31s-3.77-.66-6.32-1.14c-3.29,0-6.86-.05-10.43,0-2.33,0-4.67.24-7,.37L325,391.18l7.06-3.1c-1.53-1.93-2.08-2.35-2.26-2.89-.62-1.91-2.1-5-1.47-5.57a12.13,12.13,0,0,1,6.49-2.29c3.8-.34,7.66-.09,11.49-.09V374.8H328.52c1.62-17.59,9.38-33.74,19-49.46-6.86.11-8,1.44-7.75,7,.06,1.22-1.33,2.61-2.24,3.77-1.37,1.76-4.27,3.51-4.14,5.05.45,5.23-3.66,8-5.29,12s-3.51,7.83-4.75,11.9c-1.15,3.76-3.28,5.07-7,4.54-9.14-1.3-18.3-2.45-27.44-3.78-3.72-.55-3-3.24-2.47-5.78,2.89-14.14,10.33-26.1,17.69-38.19,13.13-21.56,33.68-32.8,56.42-40.7A42,42,0,0,1,382.15,279.8Z" transform="translate(101.43 -170.85)"/><path class="cls-1" d="M212.87,300.28,215,305c-7.61,1-4.63,5.9-3.63,9.81s2.56,7.86,4,11.74,4.06,6.41,8.5,6.42h13.47l.35,1.68-29.16,4.59.22,1.55L224.6,340l.26,1.73c-3.35.68-6.68,1.43-10,2-4.42.77-8.84,1.69-13.3,2-3.83.28-4.73,2.16-4.58,5.55.16,3.64.82,7,5.22,7,2.74,0,5.49-1,8.26-1.37,5.11-.71,10.23-1.28,15.33-2a39.53,39.53,0,0,0,4.25-1.09l-.25-1.78c-4.1.38-8.2.72-12.3,1.15-2.31.24-4.62.91-6.91.83-1.52-.05-3-1.08-4.52-1.68,1.06-1.49,1.83-3.85,3.23-4.31a66.24,66.24,0,0,1,12.11-2.58c5.42-.74,10.9-1.05,16.33-1.68.82-.09,1.56-.92,2.75-1.68l-3.15-2.22c2.46-2.18,4.54-4.63,7.18-6,.87-.47,3.53,1.5,4.76,2.9,2,2.28,2.45,6.65,7.28,4.27.27-.13,2.25,2,2.46,3.17,1.2,7.19,2.16,14.42,3.1,21.65.55,4.19,3.39,6.41,6.83,7.88,4,1.72,5.81,4.25,4.34,8.6a6.08,6.08,0,0,0-.15,1.49c-.65,7.88-.65,7.88-8.67,8.66.51,1.72,1,3.34,1.63,5.55l-5,1.67-1.62-5.6c-1.35,3.65-2.25,6.1-3.41,9.25-.95-1-2.17-1.87-2.65-3-2.81-6.66-9.88-12.39.45-20.17,6.93-5.22,1-17.22-7.34-21.2-7.69-3.68-13.63-2.91-19.85,1.9a22.67,22.67,0,0,0-2,2.27,70.27,70.27,0,0,0,7.42-2.53c4.86-2.38,7.84-1.54,10.42,3.21.87,1.62,1.8,3.21,3,5.38-6.7-3-13.27-8-19.4.83a34,34,0,0,0,4.4,0c2-.26,3.89-1.1,5.84-1.09,1.24,0,2.49,1.09,3.73,1.68-1,.9-1.78,2.3-2.9,2.6-4,1.09-8.06,1.81-12.56,2.76l3,6.51c-4.1,1.23-7.89,2.83-11.82,3.32-1.78.22-4.82-1.29-5.52-2.83-.92-2-.66-5,.13-7.26s2.89-4.17,4.19-6.8c-5.44,2.85-10.6,3.33-16.28.9-3-1.27-3.79-3-4.37-5.73-3.56-16.66-6.82-33.41-11-49.92-3.14-12.35-7.28-24.59-14.77-35.09-2.89-4-7.21-7.29-11.43-10.08a9.88,9.88,0,0,1-4.94-8.38c-1-11.57-2.45-23.11-4-34.64-.52-4,1-5.72,4.66-6.77a150.89,150.89,0,0,0,15.93-5.43c3.81-1.57,5.62-.44,6.62,3.21,1.56,5.73,3.18,11.44,5.08,18.22,3.15-6-.7-11.65.08-17,4.73.08,7.2,2.56,7.59,7.31.32,3.8.22,7.72,1.18,11.36.67,2.52,2.51,6.21,4.41,6.62,3.44.73,6.65-1.44,7.52-5.56a6.47,6.47,0,0,1,.74-1.41c3.88.38,5,2.95,3.68,5.85-3.63,8.12-3,16.49-2.67,25a29.72,29.72,0,0,1-1.87,11c-1.21,3.32-1.54,6.11.08,9.32,1.87,3.7,3.18,7.66,4.94,11.41C207.39,302.4,209.51,304.3,212.87,300.28Zm-30.74-63.54-2.27.52c.09,1.92,0,3.86.29,5.75q4.44,30.38,9,60.73c1.65,11,3.18,22.06,5.18,33,.45,2.46,2.22,6,4.14,6.56,2.54.8,5.82-.78,8.79-1.34-.05-.5-.09-1-.14-1.51-1-.5-2-1.52-2.93-1.41-5.08.64-6-2.27-6.6-6.46q-6.1-42.48-12.61-84.88C184.4,244,183.09,240.39,182.13,236.74Zm-16.12,9c8.19-.9,13.51-10,10-16.58a4.41,4.41,0,0,0-1.3-1.32,42.12,42.12,0,0,0-5.3-3.8c-2.37-1.26-5-3-7.45-3-6.09.06-10.53,6.1-9.54,12,1.55,9.31,4.27,11.39,12.43,9.5.57-.13,1.16-.2,2.13-.36C166.63,243.63,166.37,244.52,166,245.79ZM164.32,270l1.29-.42c.12-1.44-.15-3.1.47-4.28.83-1.57,2.35-2.78,3.58-4.15,1.23,1.38,3.31,2.65,3.51,4.17.34,2.49-.66,5.15-.84,7.75a22.68,22.68,0,0,0,.53,4.37c1.35-.72,3.17-1.1,4-2.21,4.95-6.87,1.15-18-7.17-19.62-3-.56-7,1.37-9.67,3.35s-3,5.53-1.19,9.39l2.85-3.14Z" transform="translate(101.43 -170.85)"/><path class="cls-1" d="M490.16,518.71c-23.14-11.33-39.24-27.15-48.86-49-4.45-10.11-9.31-20.37-11.55-31.07a136.68,136.68,0,0,1,7-80c10-25.08,27.95-43.53,51.05-56.57a72.06,72.06,0,0,1,33.36-9c9.27-.25,18.69-1.27,27.77,0,14.21,2,26.74,8.65,37.86,17.76,3.19,2.62,6.33,5.28,9.5,7.92l-1,1.4c-2-1.27-3.91-2.65-6-3.8-5.18-2.88-10.29-6-15.67-8.42-21.42-9.79-42.78-6.37-64,.83-21,7.11-34.52,22.68-46.23,40.54-9.74,14.86-13.79,31.62-16.12,48.66-2.09,15.25.36,30.53,5,45.28,5.26,16.57,12.32,32.18,24.4,45.09.85.92.8,2.69,1.12,4.08.43,1.89.37,4.06,1.3,5.65,2.91,5,6.28,9.77,9.27,14.75C489.25,514.11,489.38,515.93,490.16,518.71Z" transform="translate(101.43 -170.85)"/><path class="cls-1" d="M162.54,456.69c-7.15,1.22-9.84-4.14-13.3-10.16-1.13,7.3-4.73,6.59-9.06,5.63-8.45-1.88-17-3.21-25.55-4.77a19.91,19.91,0,0,1-2.44-.5c-10.52-3.33-21-6.65-31.52-10.06a35.33,35.33,0,0,1-4.74-2.34l-.06-1.69c6.49-1.39,12.93-3.07,19.48-4.11,13.26-2.1,26.58-3.83,39.88-5.75,5.11-.74,7.76,1.66,8.81,6.5.84,3.89,1.83,7.76,3,11.56.38,1.23,1.56,2.23,2.37,3.34l1.31-.92c-1.43-6.6-2.62-13.25-4.34-19.77-2-7.64-6.36-10-14.61-8.37-7.3,1.47-14.51,3.4-21.82,4.8q-20.69,4-41.44,7.51c-6.32,1.07-12.43.53-18-4.46,4.26-1,7.85-2,11.48-2.78,16.33-3.5,32.67-6.91,49-10.48a33,33,0,0,0,5.81-2.41c.75-.33,1.46-1,2.21-1,9.1-.22,18.2-.52,27.3-.41a10.65,10.65,0,0,1,10.27,8.72c2.35,13.23,4.23,26.54,6.27,39.83A9.15,9.15,0,0,1,162.54,456.69Z" transform="translate(101.43 -170.85)"/><path class="cls-1" d="M129.55,251.6c1.45,2.58,3,5.12,4.31,7.76a16.58,16.58,0,0,1,.88,3.36c2.12,8,2.13,8,10,8.25,11.3.37,17.77,6.36,21.9,17.36C173,305.2,178,322.58,183,339.92c2.36,8.24,3.36,16.88,4.88,25.36.52,2.87-1,4.23-3.75,3.58-3.68-.87-7.61-1.53-10.84-3.34-13.52-7.58-16.2-10.68-19.76-26.39a48.8,48.8,0,0,0-11-22c-2.39-2.74-3.21-5.7-1.87-9.21,2.28-6,1-11.6-.19-17.79-1.9-9.92-7.34-18.41-9.39-28.14-.69-3.28-2.16-6.39-3.28-9.58Z" transform="translate(101.43 -170.85)"/><path class="cls-1" d="M62.44,387.65,51.83,404.34a15.82,15.82,0,0,1-1.94-3.08,2.2,2.2,0,0,1,.5-1.83c5-4.76,4.82-11.27,5.93-17.78l-3.5-2.12a77.72,77.72,0,0,0,3-9.11c.38-1.81-.39-3.83-.47-5.75a14.17,14.17,0,0,1,.28-4.61c1.18-3.86,2.64-7.63,4.29-12.3-5.9,1.89-7,5.2-7.28,9.78-.41,6.71-1.88,13.34-2.63,20-.24,2.09.77,4.32.52,6.41a83.3,83.3,0,0,1-2.37,12.85,45,45,0,0,1-4.35,10c-1.35,2.36-3.51,4.25-5.64,6.74-.73-1.45-1.08-1.88-1-2,4.69-6.46,2.2-13.09,1.07-20-2.17-13.32-3.38-26.77,2.44-39.7a4,4,0,0,0,.29-2.44c-2.49-10.42,2.72-18.56,7.8-26.76,3.78-6.1,9.83-8.87,16.32-10.55,1.83-.48,4.69.48,6.2,1.79,7.71,6.67,10.33,15.6,10.13,25.47-.1,5-1.7,9.42-4,14.06-2.94,5.92-3.72,12.92-5.47,19.45a22.39,22.39,0,0,1-1.87,5.64A10.24,10.24,0,0,1,66.29,382c-3.05,1.68-6.27,3-9.42,4.53l.51,1.53ZM51.33,355.31l-4.73-6.46c-1.27,2.57-3,5-3.55,7.75-.19.91,2.5,2.43,3.87,3.67Zm12.22,7.38c.68-2.62,1.42-4.81,1.76-7.06.16-1-.44-2.19-.7-3.3-1.18.32-2.74.27-3.46,1C59.35,355.24,60.88,360.8,63.55,362.69Zm8.52-10.36-1.92-.11c-1,3.79-4.37,7.65,1,12.4C71.53,359.75,71.8,356,72.07,352.33Z" transform="translate(101.43 -170.85)"/><path class="cls-1" d="M280.41,351.17a24.85,24.85,0,0,1-1.41-4.1c-1.38-8.32-2.67-16.66-3.94-25-.53-3.45-2.25-4.8-5.9-5.37-7.56-1.17-15-3.21-22-4.8-.7-2.62-1.51-5.81-2.6-8.9,0-.12-3.87.38-4.14,1.19-.85,2.53-.82,5.34-1.2,8.66-7.33,2.72-9.27,1.85-12.24-6.6a33.53,33.53,0,0,1-2-6.13c-.2-1.38.18-3.8,1-4.22,5.23-2.52,3.76-6.86,2.5-10.34a106,106,0,0,0-7.69-16.1c-2.81-4.94-1.93-14.13,2.39-17.52a3.77,3.77,0,0,1,2.76-.53,18.49,18.49,0,0,1,4.69,1.62,81.22,81.22,0,0,0,32.64,9.17c2.63.17,5.66,3.2,7.41,5.69,3,4.32,5,9.38,7.81,13.87,3.95,6.3,8.24,12.39,12.42,18.54,2.9,4.26,2.45,6.1-2.15,8.5-7.09,3.69-7.2,3.71-5.72,11.38.72,3.74,1.3,7.7,3,11C290.38,339.45,284.73,344.82,280.41,351.17Zm-43.93-72.08.53.05a41.72,41.72,0,0,0,0,5.48c.76,5.87,2.78,11.85,8.91,13.1a15.71,15.71,0,0,0,14.87-5.4c5.56-6.27,3.88-13.25,2.33-20.26-1.13-5.12-3.87-8.14-9.56-8.3-6.53-.17-13-.47-15.81,7.07C236.83,273.39,236.89,276.32,236.48,279.09ZM278.29,304c-3.72-3-5.88-5.69-8.59-6.45-1.28-.36-3.6,3-5.45,4.71,2.28,2.27,4.28,5.1,7,6.52C272.22,309.26,275,306.32,278.29,304Z" transform="translate(101.43 -170.85)"/><path class="cls-1" d="M-43.37,311.59a7.42,7.42,0,0,1,.1,1.45c-6.3,3.74-5.5,9.77-5.88,15.89-.31,5.14-2.68,10.13-4,15.24-1.11,4.5-2,9-2.9,13.59-.68,3.59-2.37,6.06-6.34,5.07-8-2-16-4.11-23.78-6.66-1.09-.36-2.25-3.84-1.71-5.23,2.58-6.65,3-14.44,9.61-19.16,1-.74,1.43-2.57,1.86-4,1.92-6.28,2.2-6.6,8.45-8.24A14.46,14.46,0,0,1-61,304.42c3.46-2.05,7,.91,7.41,6.33Zm-7.6,4.09c-2.9-2.26-9-3.48-11.33-2-.87.55-1.69,3-1.27,3.47C-62.13,318.88-53.6,317.83-51,315.68Zm-17.5,9.62.3,2.85,6-.56c-.23-1-.44-2.76-.69-2.76A41.71,41.71,0,0,0-68.47,325.3Z" transform="translate(101.43 -170.85)"/><path class="cls-1" d="M435.91,320.33c-5.17,7.36-10.38,14.7-15.48,22.11a11.15,11.15,0,0,0-1.44,3.82c-.51,2.25-.45,4.68-1.27,6.78-2.53,6.52-5.46,12.89-8,19.4-.76,1.95-.63,4.24-1.21,6.29a60.88,60.88,0,0,1-2.49,6.1l-3.61-4.05L394,386.83c-2.59-9,3.69-16,1.72-23.5,1.14-1.73,2.41-3.4,3.37-5.23,4.81-9.07,9.07-18.49,14.47-27.19,3.45-5.55,6.65-12.39,15-12.52,2.06,0,4.11,0,6.16,0C435.07,319,435.49,319.68,435.91,320.33Z" transform="translate(101.43 -170.85)"/><path class="cls-1" d="M718.89,411.35a62.67,62.67,0,0,1-7.57.87c-15.11,0-30.22-.27-45.34-.19-11.65.07-23.3.72-35,.7a38.76,38.76,0,0,1-12.65-2.09c-1.89-.67-2.92-3.77-4.34-5.77,1.94-.92,3.9-2.68,5.79-2.62,12.12.43,24.22,1.18,36.31,2Q682.25,406,708.35,408c3.53.27,7,1,10.52,1.53Z" transform="translate(101.43 -170.85)"/><path class="cls-1" d="M107.32,257.9c4.8-.46,9.65-1.51,14.4-1.2,4.9.32,7.64,4.21,8,8.86a114.82,114.82,0,0,1,0,18c-.57,6.92-6.6,10.43-13.39,8.55-8.76-2.43-11.78-9.54-14.27-17.12a16,16,0,0,1-.7-3.42c-.19-2-.24-3.95-.35-5.92,1.83.72,3.62,1.56,5.49,2.12,1.28.39,3.08,1,3.92.43a9.6,9.6,0,0,0,3.41-4.42c.19-.51-2.12-2-3.4-2.92a18.16,18.16,0,0,0-3-1.35Zm20.25,7.33c-1.64-1.69-2.79-3.8-4.25-4.05-1-.17-3.76,2.46-3.56,3.33.69,2.91,2.35,5.59,3.64,8.35Zm-2.54,15c-3.46-3.08-6.79-1.69-9.91-.29-.38.17-.23,3.4.55,3.94C120,286.85,122.6,284.17,125,280.25Z" transform="translate(101.43 -170.85)"/><path class="cls-1" d="M220.14,454.82c0,12.14,0,23.65,0,35.16,0,4.71-4.21,5.3-7.09,6.57-1.36.6-4.37-.86-5.72-2.26-3.31-3.45-6.71-7.09-8.9-11.26-1.68-3.23-1.58-7.39-2.42-11.91,7.56,1.31,6.4-5,8.54-7.53l4.13,4.1c.77-1.71,2.29-3.47,2.18-5.12C210.51,456.93,213.77,455.49,220.14,454.82Z" transform="translate(101.43 -170.85)"/><path class="cls-1" d="M126.29,251.47c-11.24,0-21.35.17-28.45,9.38-.78-4.64.63-6.41,6.79-8.78,3.75-1.44,7.62-2.55,12.07-4-4.9-1.62-9.56.61-16,3.48-6,2.64-6.93,7.93-9.47,14-1.76-4.08-3.24-6.66-3.9-9.43-.28-1.21.76-3.18,1.8-4.18,6.07-5.82,13.07-10.66,17.28-18.35,2.43-4.43,6.57-3.85,10.91-2.58,5.89,1.74,13.28,9.74,13.62,15.93l-11.4-.58Z" transform="translate(101.43 -170.85)"/><path class="cls-1" d="M133.65,352.24,123,355.06l.3,1.24,9.45,1.87,0,1.65-9.37,2.37.3,1.14,5.87,2.33c-.68,1-1,1.75-1.17,1.72-7-.92-9.83,4.25-13,8.94-3.63,5.38-10.38,8.41-13.83,6.27C99,381,98,371.73,100.11,367.53s4.47-8.58,6.77-13c6,4.42-1,13.64,8.38,16.52-.61-7.26-1.1-13.79-1.73-20.3-.5-5.14.62-6.75,5.57-7.11,2.48-.18,5-.09,7.48,0a4,4,0,0,1,3,1.52l-9.67,2.49C122.9,354.75,130.18,346.71,133.65,352.24Z" transform="translate(101.43 -170.85)"/><path class="cls-1" d="M136.61,352.77c2.08-10.19-7.09-13.27-11.5-19.31-1.82-2.51-4.47-1.4-6.26.91-1.22,1.57-2.1,3.56-3.63,4.69-1.2.89-3.54,1.46-4.69.86s-2.62-3.19-2.23-4.28c1.81-4.95-.61-6.74-4.43-9.36-4.13-2.81-7-7.49-10.39-11.35l1.13-1.31c2,.94,4.09,1.79,6.06,2.83a44.75,44.75,0,0,0,22,5.49,14.59,14.59,0,0,0,3.89-.58c6.93-2.13,7.51-1.81,9.57,5.42,2.17,7.58,4.07,15.18,2.71,23.17a22.93,22.93,0,0,1-.79,2.61Z" transform="translate(101.43 -170.85)"/><path class="cls-1" d="M590.14,430l-4.2-11.91-.9,0c-.14,2.4-.28,4.81-.44,7.47-3.48-1.92-4.76-4-5.43-10C576.81,394.42,585,378,602,365.8c1.54-1.1,3.62-1.45,5.15-2-5.36,10.84-11.8,20.84-15.3,31.79s-5.44,22.61,1.25,34.09Z" transform="translate(101.43 -170.85)"/><path class="cls-1" d="M230.2,431.76c-1.42-6.48-2.64-12.19-3.95-17.88a41,41,0,0,0-2-7c-1.49-3.5-4.1-5.27-8.23-5-3.61.23-4-2.24-2.14-4.53,3.78-4.8,7.51-10,15-8.4a8.06,8.06,0,0,0,4.87-.4c5-2.47,6.54,1.17,8.18,4.42,1.23,2.41.32,4.14-2.41,4.77-2.25.53-4.86.58-6.64,1.8-1.95,1.34-4.09,3.66-4.38,5.8-.25,1.77,1.67,5.16,3.3,5.66,7.63,2.33,7.44,9.44,9.63,14.94.44,1.12-1.49,4.26-3,4.83C235.91,431.74,232.82,431.5,230.2,431.76Z" transform="translate(101.43 -170.85)"/><path class="cls-1" d="M85,362.77c-3.48-3-3-6.38-2-10.44,1.77-6.82,2.65-13.86,3.94-21-.22,0,.29-.17.38-.05,4.27,5.64,9.33,10.89,12.53,17.09,3.35,6.51-1,12.8-3.45,18.9a2.73,2.73,0,0,1-1.18,1.54c-5.13,1.91-8,5.46-9,10.9-.17,1-2.46,1.57-3.77,2.33-.3-1.44-.94-2.91-.85-4.34a81.16,81.16,0,0,1,1.21-9.95C83.17,366.18,84.14,364.76,85,362.77Z" transform="translate(101.43 -170.85)"/><path class="cls-1" d="M93.54,452.37C78,453,66.29,444,53,439.82S30.16,424.4,17.68,416.58c1-.72,2.49-2.31,3-2,8.43,4.23,17.73,7.31,23.32,16.27,2.66-2.11,5.47-2.23,7.75,1.38a3.84,3.84,0,0,0,1.95,1.48c5.92,1.8,11.88,3.42,17.78,5.27,3.39,1.05,6.68,2.41,10.3,3.73.08.8.21,2,.43,4.08l3.12-4.53,5.53,6.37,2-.33C93.08,449.6,93.31,451,93.54,452.37Z" transform="translate(101.43 -170.85)"/><path class="cls-1" d="M137.79,359.73c.58,1.59,1.21,2.48,1.16,3.33-.64,11.24-1.37,22.49-2.1,33.73a4.39,4.39,0,0,1-.5,1.39c-2.15,4.71-12.48,6.74-16.27,2.92,1.39-2.33,2.72-4.8,4.3-7.11,3.25-4.75,5.8-9.63,4.81-15.69a5.11,5.11,0,0,1,.43-2.91C132.16,370.36,134.82,365.39,137.79,359.73Z" transform="translate(101.43 -170.85)"/><path class="cls-1" d="M87,295.07c-8-2-8.16-9.15-11-14.71,4.69-2.42,11.63-.89,14.07-8.17,2.37,10.72,6,19.94,15.36,25.59,9.75,5.86,19.32,3.89,28.85-.76l1.13.91c-1.08,1.56-1.82,3.95-3.29,4.53-8,3.16-15.47,4.81-24.17.1-8.27-4.47-14.92-9.53-19-18-.57-1.16-1.83-2-2.76-3l-1.48.63Z" transform="translate(101.43 -170.85)"/><path class="cls-1" d="M78.7,409.88c-4,.25-5.89-1.52-5.68-5.6.43-8.06,3.43-14.4,11.45-17.37,1.27-.47,3.67-.86,4-.31,2.35,3.63,5.11,7.32,6.1,11.39.87,3.55-5,9.7-9,10.77A67.9,67.9,0,0,1,78.7,409.88Z" transform="translate(101.43 -170.85)"/><path class="cls-1" d="M136.79,308.07c-3.28,7-9.81,8.33-16.3,7.46a74.14,74.14,0,0,1-19.4-5.58c-9.29-4.05-18.14-9-28.84-7.76-1.31.16-2.74-.63-4.45-1.08,2.09-4.53,5.34-5.66,9.23-4.78,2.55.58,4.91,2,7.4,2.89,9.79,3.52,19.5,7.38,29.48,10.27,3.34,1,7.44-.44,11.16-1s7.48-1.51,11.22-2.28Z" transform="translate(101.43 -170.85)"/><path class="cls-1" d="M54.51,299.23c4.37,5.74,3.75,9.37-1.84,13.68-3.38,2.6-6.27,5.82-9.4,8.73-1.33,1.23-2.71,2.4-4.08,3.59l-11.14,9.64-3.21,2.73c-1.81-4.84-.13-8,2.7-10.75,5.79-5.73,11.65-11.4,17.37-17.2C48.14,306.38,51.15,302.89,54.51,299.23Z" transform="translate(101.43 -170.85)"/><path class="cls-1" d="M159.9,410.12c2,1.57,4,2.39,4.58,3.8A100.76,100.76,0,0,1,168.76,428c2.05,9.18,3.83,18.42,5.48,27.67.28,1.61-.66,3.43-1,5.15-1.69-1-4-1.61-4.93-3.07-1.22-1.83-1.6-4.32-2-6.59C164.2,438,162.19,424.87,159.9,410.12Z" transform="translate(101.43 -170.85)"/><path class="cls-1" d="M234.14,490.35c2.43,8,1.82,9.83-3.75,13.32a121.33,121.33,0,0,1-10.7,6.3c-1.5.73-3.56.34-5.45,0l-4.75.68c0-1.72-.66-4.17.22-5a43.89,43.89,0,0,1,8.23-5.94C223.13,496.56,228.44,493.62,234.14,490.35Z" transform="translate(101.43 -170.85)"/><path class="cls-1" d="M214.93,276.43c.35,1.86.59,3.12.88,4.64l3.79-.58c5.14,12.76,5.15,11.29-6.9,17.23-1,.48-3.69-.47-4.16-1.45A109.44,109.44,0,0,1,202.88,282c-.28-.9,1.32-3.18,2.48-3.58C208.28,277.4,211.44,277.1,214.93,276.43Zm-.23,7.74-3,1,.87,6.28c1.37-.49,4-1.14,3.91-1.43A33.35,33.35,0,0,0,214.7,284.17Z" transform="translate(101.43 -170.85)"/><path class="cls-1" d="M179.17,389c-6.51,0-8.39-1.35-8.14-5.66.43-7.22,3.67-10.8,9.34-10.33,7.11.59,9.44,2.41,9.59,7.47C190.16,387,187.63,389,179.17,389Z" transform="translate(101.43 -170.85)"/><path class="cls-1" d="M240.11,434.65c1.4-.83,2.71-2,4.23-2.43,6.15-1.86,12.33-3.65,18.57-5.21,9.21-2.3,11.07-.51,9.8,9h-32.2Z" transform="translate(101.43 -170.85)"/><path class="cls-1" d="M-7.36,404.43c-4-.41-8-1.52-11.94-1.07-5.68.66-4.8-5.5-8.33-6.72l25.23,6.88v5.7c-10,0-19.88-.05-29.76,0-6,0-12,.37-17.93.33a9.33,9.33,0,0,1-5.85-2.24C-39.74,404.65-23.5,406.26-7.36,404.43Z" transform="translate(101.43 -170.85)"/><path class="cls-1" d="M57.11,446.88c6,1.48,11.87,2.89,17.7,4.36,3,.75,4.44,2.11,3.26,5.69s-1.45,7.48-2.91,11.16C74.09,463.85,73,459.6,72,455.52H59.53l-.25,1,3.24,2.26c-.07.31,0,.77-.24.9-2.18,1.47-3.41,6.86-6.44,3.81-2.12-2.13-2-7.08-1.81-10.73C54.13,450.56,56.23,448.46,57.11,446.88Z" transform="translate(101.43 -170.85)"/><path class="cls-1" d="M603.65,437.66c13,18.23,30.68,21.83,51.44,16.39-2.89,4-5.64,7.27-10.47,6.85a183.33,183.33,0,0,1-18.3-2.12c-10.42-2-16.7-9.68-22.74-17.51a8.07,8.07,0,0,1-.77-2.68Z" transform="translate(101.43 -170.85)"/><path class="cls-1" d="M292.7,310.93c4.37.08,7.82,5,6,9.21a53,53,0,0,1-5.46,9.49c-1.57,2.27-3.53,2.55-4.65-.6-1-2.81-1.82-5.69-2.8-8.51C283.52,313.92,285.73,310.81,292.7,310.93Z" transform="translate(101.43 -170.85)"/><path class="cls-1" d="M136.13,460.29c-4.56-.61-9.14-1.07-13.67-1.85-6.38-1.1-12.71-2.4-19.06-3.68-3.1-.62-6.5-1-6.28-5.17,6.56.53,12.74.33,18.55,1.69,7.16,1.68,15,2.22,20.87,7.39Z" transform="translate(101.43 -170.85)"/><path class="cls-1" d="M143.16,344.23c8.54-.73,7.72,5.51,9.14,9.25,3,8,2.4,9.11-6.62,14.94Z" transform="translate(101.43 -170.85)"/><path class="cls-1" d="M96.31,332.09c-2.54-1.65-4.07-2.27-5.09-3.36-4.22-4.47-8.14-9.23-12.48-13.59-2.33-2.34-1.81-4.36.27-5.75,1.08-.72,3.94-.46,4.77.46a148.76,148.76,0,0,1,11.49,14.39C96.33,325.77,95.88,328.34,96.31,332.09Z" transform="translate(101.43 -170.85)"/><path class="cls-1" d="M23.6,457.74c.72,4.81,4.74,8.18-.56,11.13l-3.36-4.58-2.13,2.59c-.74-1.34-1.36-2.49-1.4-2.56L20.31,455c9.43,1.24,19.83-4.19,30.16-.58l.05,2Z" transform="translate(101.43 -170.85)"/><path class="cls-1" d="M-7.55,459.79-1,455.94l-.14-1.26c-1.44.08-3,.52-4.29.14s-2.3-1.6-4.45-3.2l23.52-2.2.35,1.94L2.36,454.72l.41,1.46c3.26-.41,6.51-.91,9.78-1.14.74-.05,1.54.85,2.32,1.31-.63.84-1.16,2.31-1.9,2.43-5.36.86-10.75,1.51-16.15,2.07C-4.21,461-5.32,460.36-7.55,459.79Z" transform="translate(101.43 -170.85)"/><path class="cls-1" d="M259,403.69c2.4,1.17,5.8,1.72,6.49,3.39a33.24,33.24,0,0,1,2,11.6c0,1.18-2.19,2.75-3.7,3.5-.82.4-2.57-.25-3.45-1C257.21,418.59,256.24,407.91,259,403.69Z" transform="translate(101.43 -170.85)"/><path class="cls-1" d="M112.91,187.14c1-4.67,5.54-3.58,8.21-5.25,2.58,3.29,3.16,9,9.57,6.35.89-.36,2.74,1.61,4.14,2.51-1.27.71-2.56,1.4-3.81,2.15-2.88,1.74-5.7,3.61-8.65,5.23a10.78,10.78,0,0,1-4.38,1.29c-.36,0-1.48-2.27-1.15-2.82a10.72,10.72,0,0,1,3.62-3.56c1.42-.83,3.2-1,4.83-1.51l-.24-1.48Z" transform="translate(101.43 -170.85)"/><path class="cls-1" d="M331.38,287.87c-2.35,0-4.46.42-6.34-.08a130.27,130.27,0,0,1-12.71-4.19c-3.52-1.35-6.74-2.36-8.74,2.67l-1-.83c.33-1.94.66-3.89.95-5.62l-6.94-3.2C301.86,275.15,329.64,284.69,331.38,287.87Z" transform="translate(101.43 -170.85)"/><path class="cls-1" d="M341.72,280.59c-2.06.39-4.26,1.47-6.14,1.07-7.11-1.53-14.14-3.45-21.14-5.45-1.25-.37-2.19-1.84-3.27-2.81,1.64-.69,3.44-2.22,4.9-1.93,4.2.81,8.24,2.44,12.38,3.6,4.36,1.21,8.76,2.25,13.15,3.37Z" transform="translate(101.43 -170.85)"/><path class="cls-1" d="M-92,381.9c7.49,8.92,18.5,8.4,28.5,10.31l-.58,2.43c-3.33,0-6.77.53-10-.11-6.58-1.32-13.07-3.15-19.5-5.1-.79-.24-1.59-2.64-1.29-3.75C-94.45,384.26-93,383.13-92,381.9Z" transform="translate(101.43 -170.85)"/><path class="cls-1" d="M668.46,449.73l-4.55-2.52c3.24-4.89,6.24-9.72,9.54-14.34,3.1-4.35,1-11.7,8.28-14.4C681.45,430.93,672.54,439.06,668.46,449.73Z" transform="translate(101.43 -170.85)"/><path class="cls-1" d="M-12.31,448.18l-8.43,2.36,0,1.25c1.81,0,3.63-.07,5.43,0,1.18.06,2.65,0,3.42.69s.45,2.07.63,3.16c-1.2.15-2.39.37-3.59.45-4.39.29-8.78.6-13.17.76-3.2.12-6.4,0-10.64,0,4.41-6.41,10.38-2.23,14.7-4.3,1.24-5.33,2.92-6.25,11-6.06Z" transform="translate(101.43 -170.85)"/><path class="cls-1" d="M387.59,389.49c-2,7.47-1.94,7.24-8.93,6-2.59-.47-5.43.47-8.16.64-1.48.1-3.43.48-4.36-.27-1.12-.9-2.28-3.36-1.79-4.26.68-1.25,2.84-2.26,4.42-2.34,3.48-.16,6.93-1.06,10.4,1.73C380.57,392.08,384.45,390.12,387.59,389.49Z" transform="translate(101.43 -170.85)"/><path class="cls-1" d="M-15.94,443.42c-1.06-5.94-2.25-11.86-3.1-17.83a7.23,7.23,0,0,1,1.13-4.87c.51-.68,3.25-.73,3.93,0a7.4,7.4,0,0,1,1.5,4.53c.25,5.25.37,10.52.23,15.77,0,1.17-1.36,2.3-2.1,3.45Z" transform="translate(101.43 -170.85)"/><path class="cls-1" d="M-37.73,451.32V438.88c2.71,0,7.12-1.13,8.12.24,1.75,2.4,2.62,6.74,1.67,9.52C-29.45,453.11-34,450.79-37.73,451.32Z" transform="translate(101.43 -170.85)"/><path class="cls-1" d="M274.68,367.92c-6.15-.85-8.42-4-8.89-9.18-.53-5.88-2.18-11.65-3-17.52-.19-1.36,1.1-2.93,1.71-4.4.82,1.24,2.15,2.4,2.34,3.73.6,4.11.86,8.27,1.07,12.42.23,4.49,1.31,8.44,5.11,11.37C274,365.05,274.15,366.7,274.68,367.92Z" transform="translate(101.43 -170.85)"/><path class="cls-1" d="M297.59,506.56c-3.24-.54-6.33-3.23-8.85,1.76l-5.75-2.2c.23,1.76.42,3.14.79,5.91l-4.92-3.34a24.29,24.29,0,0,1,3-4,6.82,6.82,0,0,1,3.6-1.53c3.76-.43,7.59-.37,11.32-.93,3.56-.53,7-1.59,11.34-2.61-.15,2.16.14,4-.59,5.39-.3.56-2.8-.3-4.24-.08A48.45,48.45,0,0,0,297.59,506.56Z" transform="translate(101.43 -170.85)"/><path class="cls-1" d="M7.2,427.94c1.75-.17,2.88-.35,4-.36,3.65,0,7.3,0,12.46,0-1.18,2.93-2,5.08-2.9,7.23l-7.23-3.31c-.2,2.36-.47,5.69-.75,9.15H8.59C8.14,436.48,7.69,432.44,7.2,427.94Z" transform="translate(101.43 -170.85)"/><path class="cls-1" d="M307.68,266.16a18.77,18.77,0,0,1-3.2-2.05,20.89,20.89,0,0,1-2.32-3.14c1.31-.08,2.73-.52,3.91-.16,3.45,1.07,6.8,2.47,10.9,4l-6.48,2.06c-2.15,7-8.21,8.2-13.39,2.44a3.3,3.3,0,0,1-.59-3c.37-.63,2-1,2.91-.78,2.52.52,5,1.39,7.43,2.12Z" transform="translate(101.43 -170.85)"/><path class="cls-1" d="M539.1,313.27,569.39,330c0,.47-.08.93-.11,1.4-1.15.23-2.65,1.05-3.4.6-8.92-5.3-17.73-10.78-26.55-16.27-.43-.27-.59-1-.88-1.51C538.67,313.88,538.88,313.57,539.1,313.27Z" transform="translate(101.43 -170.85)"/><path class="cls-1" d="M118,383.14c-3.81,8-6.67,14.39-10,20.55-.66,1.23-3.19,1.45-4.86,2.13-.05-1.48-.66-3.24-.07-4.39a163.35,163.35,0,0,1,8.76-15.54C112.71,384.56,115.24,384.31,118,383.14Z" transform="translate(101.43 -170.85)"/><path class="cls-1" d="M18.27,449.38l33.57-2.95.65,1.31c-2.56,1.17-5,3-7.71,3.38-4.91.68-9.94.4-14.91.7-2.77.16-5.52.82-8.28.94-1.17.06-2.36-.72-3.54-1.11Z" transform="translate(101.43 -170.85)"/><path class="cls-1" d="M154,466c-3.35-.67-7.25-1.37-11.08-2.32a2.79,2.79,0,0,1-1.6-2.09c0-.8.76-1.71,1.37-2.42.24-.28.94-.23,1.43-.21a130,130,0,0,1,13.4.56c1.64.21,3.06,2.14,4.59,3.28a45.85,45.85,0,0,1-4.59,2.89C156.66,466.12,155.53,465.92,154,466Z" transform="translate(101.43 -170.85)"/><path class="cls-1" d="M172.4,425.59c2-1.82,2.82-3,4-3.51a130.66,130.66,0,0,1,13.39-5.23c1.45-.45,3.38.65,5.08,1-.77,1.44-1.19,3.56-2.39,4.19A33.08,33.08,0,0,1,172.4,425.59Z" transform="translate(101.43 -170.85)"/><path class="cls-1" d="M183.37,465.85c.72-3.48,1.06-5.94,1.76-8.3,1.08-3.6,4.28-3.23,6.52-2.21,2.61,1.19.42,2.58-.52,4.13-.73,1.22.15,3.32.11,5a20.52,20.52,0,0,1-.66,6c-.13.38-3.38.43-4.4-.37C184.73,469,184,466.9,183.37,465.85Z" transform="translate(101.43 -170.85)"/><path class="cls-1" d="M219.7,322.12c7.21,5.5,14.58,3.6,22.34,2,3.8-.8,8.17,1.1,12.28,1.77l-.1,1.69c-1.66.13-3.33.32-5,.37-6.81.17-13.63.19-20.43.49C222.81,328.67,222.08,328.35,219.7,322.12Z" transform="translate(101.43 -170.85)"/><path class="cls-1" d="M260,320.71c-10.29,0-20.59.17-30.88-.16-1.89-.06-3.72-2.13-5.25-3.88,9.23,2.25,18.22.71,27.21.36,3-.11,6.09.91,9.14,1.42Z" transform="translate(101.43 -170.85)"/><path class="cls-1" d="M-21.59,427.07c-.9.91-1.87,2.66-2.69,2.6-8.89-.68-17.76.88-26.63.15a9.56,9.56,0,0,1-2.23-.78l0-1.52,30.71-2Z" transform="translate(101.43 -170.85)"/><path class="cls-1" d="M175.36,411.88c-2-1-3.16-1.18-3.57-1.85a2.8,2.8,0,0,1,.2-2.59,72.61,72.61,0,0,1,7.41-8.06c.89-.79,3.36-1,4.22-.31s1.6,3.5,1,4.13C181.74,406.37,178.39,409.13,175.36,411.88Z" transform="translate(101.43 -170.85)"/><path class="cls-1" d="M308.22,293.68c4.25-7.92,5.95-8.22,17.53-3.23-1.12,4.18-3.78,1.7-5.94,1.4s-4.55-.63-6.83-.94c-.14.62-.29,1.24-.43,1.85l7.19,2.89C317,299.79,315,299.49,308.22,293.68Z" transform="translate(101.43 -170.85)"/><path class="cls-1" d="M34.89,470.52c-.36-2.32-1.8-5.33-.85-6.84,2.43-3.88,6.64-3.49,10.43-2.55l1.23,13.32-1.81.39q-1.68-5.28-3.37-10.55l-1.38.25c-.7,2-1.39,4-2.08,6.07Z" transform="translate(101.43 -170.85)"/><path class="cls-1" d="M173.17,418.87c.6-4,1.4-6.63,6.19-6.77,2.77-.08,5.41-2.85,8.24-4.12,1.08-.47,2.53-.11,3.81-.13-.43,1.1-.54,2.58-1.34,3.22C185.19,415,179.81,418,173.17,418.87Z" transform="translate(101.43 -170.85)"/><path class="cls-1" d="M-78.83,369.31l19.45,1.56c.76,2.86,2,6.55-3.47,8.64-.3-7.2-6.22-5.4-10.42-6.55-2-.55-4-1.18-6-1.77Z" transform="translate(101.43 -170.85)"/><path class="cls-1" d="M195.82,441.23c-4,4.9-14.74,5-17.58.12C184.28,438.21,193.1,438.15,195.82,441.23Z" transform="translate(101.43 -170.85)"/><path class="cls-1" d="M5.34,435.83c0,1.33.44,2.9-.11,3.93a5.67,5.67,0,0,1-3.33,2.76c-.78.16-2.46-1.39-2.81-2.47a12.61,12.61,0,0,1-.73-6.35c.46-1.92,2-4.72,3.48-5,2.57-.46,4,1.76,3.56,4.62a17.22,17.22,0,0,0,0,2.49Z" transform="translate(101.43 -170.85)"/><path class="cls-1" d="M659,439.34c-6-2.93-6-2.93-3.1-13.31l2.79,1.72,2.42-3.46,1.64.5Z" transform="translate(101.43 -170.85)"/><path class="cls-1" d="M204.11,393.22c-5.24-1.07-8.12-3.51-9.18-8-1.14-4.84-1.83-9.59,3.81-13-.2,3.64-1.19,7.48-.38,10.88S201.78,389.31,204.11,393.22Z" transform="translate(101.43 -170.85)"/><path class="cls-1" d="M270.42,322.93c-5.35,5.61-9.19,11.86-16.83,14.35C253.56,331.93,263.92,323,270.42,322.93Z" transform="translate(101.43 -170.85)"/><path class="cls-1" d="M-9.88,458.49c-3,4.42-21.74,6-27.61,2.08Z" transform="translate(101.43 -170.85)"/><path class="cls-1" d="M164,370c-2.62,6.79-4.83,13.1-7.63,19.14-.46,1-3.47.84-5.62.39,5.77-3.18,6-8.9,6.94-13.77C158.35,372,160,370.75,164,370Z" transform="translate(101.43 -170.85)"/><path class="cls-1" d="M-3.29,411.13c0,1.78.12,2.18,0,2.43-1,1.88-14.21,4.15-15.07,2.39-.59-1.2.29-4.58.68-4.61C-12.91,411-8.08,411.13-3.29,411.13Z" transform="translate(101.43 -170.85)"/><path class="cls-1" d="M60.34,413.79C55.52,406.6,58.27,395,65.77,389,65,397.48,56.22,404.17,60.34,413.79Z" transform="translate(101.43 -170.85)"/><path class="cls-1" d="M404.26,391.08l-1.68,4.14a36.78,36.78,0,0,1-4.5.75c-1.76,0-3.82.37-5.17-.42-1-.56-1.72-3.2-1.19-4.13a5.38,5.38,0,0,1,4.2-2C398.5,389.48,401,390.38,404.26,391.08Z" transform="translate(101.43 -170.85)"/><path class="cls-1" d="M161,363.12c-4.76,8.19-8.91,15.37-13.15,22.5-.13.22-1.19-.11-2.32-.25C149.73,377.39,150.53,367.67,161,363.12Z" transform="translate(101.43 -170.85)"/><path class="cls-1" d="M209.48,421.57c3-2.68,5.82-5.57,9-7.93,1-.71,3,0,4.54.08-.25,1.43,0,3.68-.85,4.16-3.63,2.16-7.57,3.81-11.39,5.64Z" transform="translate(101.43 -170.85)"/><path class="cls-1" d="M649.32,419.63c4.44,5.07-2.83,17.78-11.62,19.37,2.48-2.65,5.47-5,7.29-8C647,427.67,647.82,423.72,649.32,419.63Z" transform="translate(101.43 -170.85)"/><path class="cls-1" d="M-8.88,442.82c0-3.75-.32-6.92.16-10,.21-1.33,2.07-2.4,3.18-3.59.79,1.29,2.55,3,2.21,3.82C-4.62,436.4-1.43,442.33-8.88,442.82Z" transform="translate(101.43 -170.85)"/><path class="cls-1" d="M178,433.53c3.48-5.41,9.54-4.66,14.8-5.75.5-.1,1.51.72,1.75,1.33s-.06,2-.38,2.11c-5.2,1.43-10.43,2.71-15.66,4Z" transform="translate(101.43 -170.85)"/><path class="cls-1" d="M125.91,201.1c1.51-3,2.9-5.32,7-2.82,1.77,1.07,4.45.65,6.71.91C137.81,205.25,132.41,206.07,125.91,201.1Z" transform="translate(101.43 -170.85)"/><path class="cls-1" d="M68.79,276c4.21.71,6.16,1.63,5.38,5.34-.57,2.68-.2,5.55-.49,8.31A2.24,2.24,0,0,1,71.87,291,2.77,2.77,0,0,1,70,289.26C69.5,285.06,69.21,280.82,68.79,276Z" transform="translate(101.43 -170.85)"/><path class="cls-1" d="M-31,417.67-46.9,419l-.16-1.7,8.47-1.47-.62-.89c1.49-1.29,3.09-3.71,4.43-3.58,1.61.16,3,2.51,4.49,3.91C-30.55,416-30.8,416.85-31,417.67Z" transform="translate(101.43 -170.85)"/><path class="cls-1" d="M-47.89,458.38c-3.39-3-5.14-10.51-3.25-13,2.73-3.64,5.89-1.62,9.24-.12C-50.59,446.3-47.21,453-47.89,458.38Z" transform="translate(101.43 -170.85)"/><path class="cls-1" d="M113,296c-8.67.6-18.27-9.26-17-18.06C100.25,286,104.07,293.41,113,296Z" transform="translate(101.43 -170.85)"/><path class="cls-1" d="M93.45,378c3.76,3.52,3.15,11.22,10.82,10.29-1.85,4.09-2.46,4.33-5.57,2.82C94.19,388.9,91.31,382.09,93.45,378Z" transform="translate(101.43 -170.85)"/><path class="cls-1" d="M442.05,311c-3.19,4.36-12.24,5.31-16.56.53l16.2-2.29Z" transform="translate(101.43 -170.85)"/><path class="cls-1" d="M624.31,441.9c3.36.68,5.75,1,8,1.68a13.25,13.25,0,0,1,3.76,2.23,27.93,27.93,0,0,1,2.75,2.59c-1.16.42-2.32,1.23-3.47,1.2C630.79,449.52,627.57,447.41,624.31,441.9Z" transform="translate(101.43 -170.85)"/><path class="cls-1" d="M14.91,444.45c-4.82,5.66-10.72,2.06-15.65,3.72C-1.3,443.6,1.48,443,14.91,444.45Z" transform="translate(101.43 -170.85)"/><path class="cls-1" d="M79.71,185.64a89.86,89.86,0,0,1,9.65-1.89c1.11-.1,2.34,1.17,3.51,1.81-.9,1.07-1.59,2.51-2.73,3.13C86.53,190.65,83.2,190.23,79.71,185.64Z" transform="translate(101.43 -170.85)"/><path class="cls-1" d="M5,464c-.35,4.26-4.73,7.55-7.75,6.21A4.77,4.77,0,0,1-5,466.82c-.1-.78,1.35-1.88,2.29-2.62.43-.34,1.28-.21,1.94-.22C1,464,2.79,464,5,464Z" transform="translate(101.43 -170.85)"/><path class="cls-1" d="M131.18,228c2,.79,3.6,1.41,5.16,2,1.13.41,2.28.77,3.42,1.15-.61,1.45-.95,3.12-1.91,4.27a4,4,0,0,1-3.29,1.23C131.73,235.89,130.07,230.46,131.18,228Z" transform="translate(101.43 -170.85)"/><path class="cls-1" d="M-30.37,423.05c-6.79,1.67-13.75,1.14-20.67,1l-.17-1.77,20.59-2Z" transform="translate(101.43 -170.85)"/><path class="cls-1" d="M-25.15,447.31c0-5.64-.11-9.51.08-13.37.05-.85,1.17-1.65,1.8-2.48.74.71,2,1.36,2.12,2.15a46.52,46.52,0,0,1,.31,9.79C-20.94,444.48-22.92,445.37-25.15,447.31Z" transform="translate(101.43 -170.85)"/><path class="cls-1" d="M206.36,415.91c.2-4.7,4.84-9.88,7.93-9.81a2.91,2.91,0,0,1,2.18,1.47,2.7,2.7,0,0,1-.61,2.51C213,412,209.93,413.76,206.36,415.91Z" transform="translate(101.43 -170.85)"/><path class="cls-1" d="M619.78,488.78c-2.79-6.52-2.12-14,1.7-16.08C620.25,478.11,625.61,483.88,619.78,488.78Z" transform="translate(101.43 -170.85)"/><path class="cls-1" d="M19.29,445.06c5.53-3.63,11.41-2.64,17.7-1.73C34.88,446.42,30.9,446.82,19.29,445.06Z" transform="translate(101.43 -170.85)"/><path class="cls-1" d="M15.9,343c4.88,2.8,3.31,7.58,4.61,12C14,351.76,12.92,348.87,15.9,343Z" transform="translate(101.43 -170.85)"/><path class="cls-1" d="M661,441.6l9.41-13.1C671.08,436.46,667,442.32,661,441.6Z" transform="translate(101.43 -170.85)"/><path class="cls-1" d="M462.13,443.24c2.65-2.88,8.84-3.88,12.6-2C472,445.48,467.82,446.16,462.13,443.24Z" transform="translate(101.43 -170.85)"/><path class="cls-1" d="M588.08,368.37l-15.51-8.21.68-1.41,16.25,6.59Z" transform="translate(101.43 -170.85)"/><path class="cls-1" d="M364.54,403.46c3.39-4.58,9.94-4.63,15,0Z" transform="translate(101.43 -170.85)"/><path class="cls-1" d="M338.71,400.91c-1.21.94-2.29,2.38-3.65,2.72-3.58.88-7,.66-8.79-5l11.52,1.25Z" transform="translate(101.43 -170.85)"/><path class="cls-1" d="M245.38,405.86c2,4.39,4,8.79,6.44,14.06a25.88,25.88,0,0,1-3.55-.41c-.23-4.72-6.44-7.76-4.46-13.06Z" transform="translate(101.43 -170.85)"/><path class="cls-1" d="M544.12,349.44l-14.87-7.2c.31-.64.62-1.28.92-1.93l15.08,6.78C544.88,347.87,544.5,348.66,544.12,349.44Z" transform="translate(101.43 -170.85)"/><path class="cls-1" d="M351.76,531.23l15.66,4.57C358.86,538.19,354.76,537,351.76,531.23Z" transform="translate(101.43 -170.85)"/><path class="cls-1" d="M141.36,197c3.43-3.13,10.33-2.28,16.64,1.66-2.81.5-4.62,1.28-6.23,1s-2.91-2-4.53-2.53C145.78,196.64,144.08,197,141.36,197Z" transform="translate(101.43 -170.85)"/><path class="cls-1" d="M721.39,410.16c5.75-2.33,10.38-1.58,12.93,3.3l-13.09-1.56Z" transform="translate(101.43 -170.85)"/><path class="cls-1" d="M-4.53,479.41c-6.49.79-7.73-1.6-5.19-10C-7.77,473.18-6.22,476.15-4.53,479.41Z" transform="translate(101.43 -170.85)"/><path class="cls-1" d="M220.59,427.45c-3.28,6-7.61,5.89-12.17,5.12l-.51-1.64Z" transform="translate(101.43 -170.85)"/><path class="cls-1" d="M104.31,336.85c1.58,2.34,3.29,3.8,3.34,5.3,0,1.18-2,2.43-3.1,3.65-1.16-1.48-2.79-2.81-3.27-4.48C101,340.44,102.79,339,104.31,336.85Z" transform="translate(101.43 -170.85)"/><path class="cls-1" d="M144.52,341.12l-3.28-12.79C147.18,332,148.29,335.6,144.52,341.12Z" transform="translate(101.43 -170.85)"/><path class="cls-1" d="M167.25,377.39c-.58,4-1.15,8.06-1.95,13.72-1.2-2.22-2.2-3.22-2.23-4.26-.12-3.65-.23-7.44,2.89-10Z" transform="translate(101.43 -170.85)"/><path class="cls-1" d="M191.36,225.66c1.57,3.93,3.13,7.85,4.76,11.92C191.14,237.11,189.55,233.8,191.36,225.66Z" transform="translate(101.43 -170.85)"/><path class="cls-1" d="M100.84,194.25c0-.66-.13-1.35.11-1.54,2-1.62,4.11-3.16,6.18-4.72.41.88,1.42,2.14,1.14,2.57C106.61,193.14,104.78,195.81,100.84,194.25Z" transform="translate(101.43 -170.85)"/><path class="cls-1" d="M102.12,188.2a69.26,69.26,0,0,1-6.7,4.53c-.32.16-1.56-1.46-2.38-2.26a38,38,0,0,1,4.83-4.28C98.36,185.87,99.83,187.07,102.12,188.2Z" transform="translate(101.43 -170.85)"/><path class="cls-1" d="M-70.24,386.38l8.15-3.66c-.25,2.9.78,6.67-4.21,7C-69,389.89-70.84,388.88-70.24,386.38Z" transform="translate(101.43 -170.85)"/><path class="cls-1" d="M-41.7,413.54l-10.95,1.35-.27-2.18c3.29-2.66,7.1-1.7,10.82-1.34Z" transform="translate(101.43 -170.85)"/><path class="cls-1" d="M170,397.55c2.45,2.89,1.2,5.13-1.27,6.63-1.18.71-3,.32-4.6.42-.16-.52-.32-1.05-.49-1.57Z" transform="translate(101.43 -170.85)"/><path class="cls-1" d="M205.59,408l-7.46,1-.3-3.39,7.69-.59Z" transform="translate(101.43 -170.85)"/><path class="cls-1" d="M-1.66,424c-1.41.71-3.23,2.33-4.12,1.92-1.41-.65-2.49-2.56-3.07-4.16-.19-.55,1.83-2.7,2.31-2.54,1.45.49,2.64,1.75,3.94,2.71Z" transform="translate(101.43 -170.85)"/><path class="cls-1" d="M287.62,256l12.5,2.67C294.88,261.71,290.31,260.7,287.62,256Z" transform="translate(101.43 -170.85)"/><path class="cls-1" d="M5.22,423.32c-1.8,1.2-3.32,2.72-3.82,2.44a6.28,6.28,0,0,1-2.92-3.49c-.18-.75,1.6-2,2.49-3Z" transform="translate(101.43 -170.85)"/><path class="cls-1" d="M11.2,461.65a34.45,34.45,0,0,1,2.49,5.7c.12.46-1.78,1.43-2.75,2.17-.84-2.24-1.68-4.49-2.51-6.73Z" transform="translate(101.43 -170.85)"/><path class="cls-1" d="M747.83,412.1l-8.56.74c0-.75-.09-1.49-.13-2.24h8.74C747.86,411.1,747.85,411.6,747.83,412.1Z" transform="translate(101.43 -170.85)"/><path class="cls-1" d="M356.93,400.21c-2,4.46-4.57,4.24-7,3.07-.54-.26-.26-2.22-.35-3.4Z" transform="translate(101.43 -170.85)"/><path class="cls-1" d="M391.33,401.36h6.84c-.08,1-.17,2.07-.25,3.1l-6.7-.6Z" transform="translate(101.43 -170.85)"/><path class="cls-1" d="M321.83,376.75a64.11,64.11,0,0,1-6.47-.07c-.78-.09-1.48-1-2.22-1.48.56-.72,1-1.87,1.69-2.08C317.77,372.23,320.44,372.44,321.83,376.75Z" transform="translate(101.43 -170.85)"/><path class="cls-1" d="M414.06,304.53h10.43C421.46,308,418.38,308.67,414.06,304.53Z" transform="translate(101.43 -170.85)"/><path class="cls-1" d="M-24.82,419.62c-1.23-2.24-2.56-3.57-2.3-4.42.47-1.53,1.88-2.77,2.9-4.14.81,1.25,2.23,2.48,2.25,3.74S-23.36,417.28-24.82,419.62Z" transform="translate(101.43 -170.85)"/><path class="cls-1" d="M-16.37,494.93l-10.19.5,0-2c3.47,0,7-3.28,10.4-.11Z" transform="translate(101.43 -170.85)"/><path class="cls-1" d="M532.41,331.5l11.49,5.24c-.26.59-.53,1.17-.8,1.76l-11.54-5.3C531.84,332.63,532.13,332.07,532.41,331.5Z" transform="translate(101.43 -170.85)"/><path class="cls-1" d="M-48.28,297.75l-8.09,3C-55.57,293.91-54.3,293.51-48.28,297.75Z" transform="translate(101.43 -170.85)"/><path class="cls-1" d="M285,444.29c2.17,2.16,6.2,3.72,1.56,9-1.16-3.34-2.05-5.93-2.95-8.51Z" transform="translate(101.43 -170.85)"/><path class="cls-1" d="M209.2,386.76c-5.45-.83-6.48-2.43-5.8-9Z" transform="translate(101.43 -170.85)"/><path class="cls-1" d="M5.4,413.57c-1.93,1.14-3.3,2.55-4.11,2.28-1.22-.4-2-2-3-3.06,1.12-.81,2.22-2.21,3.37-2.25C2.6,410.51,3.62,412.06,5.4,413.57Z" transform="translate(101.43 -170.85)"/><path class="cls-1" d="M505.16,509.1l-12.65-7c.25-.48.5-.95.74-1.43l12.67,6.93C505.67,508.09,505.41,508.59,505.16,509.1Z" transform="translate(101.43 -170.85)"/><path class="cls-1" d="M176.81,469c-.76,1.36-1.51,2.73-2.26,4.09l-1.35.21-1.71-5.05,4.79-.78Z" transform="translate(101.43 -170.85)"/><path class="cls-1" d="M283.86,387.29a51,51,0,0,1,5.18-3.14c.21-.1,1.24,1.47,1.89,2.27l-5.83,3C284.69,388.72,284.28,388,283.86,387.29Z" transform="translate(101.43 -170.85)"/><path class="cls-1" d="M339.23,406.6c.33,3,.66,5.93,1,9.3-3.75-2.11-4.22-4.11-2.65-9.06Z" transform="translate(101.43 -170.85)"/><path class="cls-1" d="M203.5,401.22l-9.3.94C196.11,397.94,197.86,397.63,203.5,401.22Z" transform="translate(101.43 -170.85)"/><path class="cls-1" d="M554.12,331.94l-7.54-2.08C551.34,326.25,551.36,326.26,554.12,331.94Z" transform="translate(101.43 -170.85)"/><path class="cls-1" d="M6,484.47c-.53-2.89-.94-5.07-1.35-7.26C6,477,6,477,10.75,483.62Z" transform="translate(101.43 -170.85)"/><path class="cls-1" d="M151.68,400.22c2-.41,4-1.13,5.94-1.11.9,0,1.79,1.48,2.69,2.29l-.61,1.19-7.81-.77Z" transform="translate(101.43 -170.85)"/><path class="cls-1" d="M141.74,206.62c1.16-6.39,2.1-6.75,6.5-3.11Z" transform="translate(101.43 -170.85)"/><path class="cls-1" d="M552.8,352.3c5.11-1.78,7.49-.78,8.09,4Z" transform="translate(101.43 -170.85)"/><path class="cls-1" d="M535.56,324l-7-4.23C534.82,317.36,536.22,318.21,535.56,324Z" transform="translate(101.43 -170.85)"/><path d="M500.75,412.89l24.31-2.22C519.84,414.88,505.88,416,500.75,412.89Z" transform="translate(101.43 -170.85)"/><path d="M542.1,410l12.18,1c-1.63,5.39-5.39,4-8.31,3.58-1.68-.25-3.14-2-4.69-3.05Z" transform="translate(101.43 -170.85)"/><path d="M182.13,236.74c1,3.65,2.27,7.25,2.83,11q6.47,42.41,12.61,84.88c.6,4.19,1.52,7.1,6.6,6.46.91-.11,2,.91,2.93,1.41.05.5.09,1,.14,1.51-3,.56-6.25,2.14-8.79,1.34-1.92-.6-3.69-4.1-4.14-6.56-2-10.95-3.53-22-5.18-33q-4.53-30.35-9-60.73c-.28-1.89-.2-3.83-.29-5.75Z" transform="translate(101.43 -170.85)"/><path d="M166,245.79c.36-1.27.62-2.16,1-3.5-1,.16-1.56.23-2.13.36-8.16,1.89-10.88-.19-12.43-9.5-1-5.94,3.45-12,9.54-12,2.48,0,5.08,1.72,7.45,3a42.12,42.12,0,0,1,5.3,3.8,4.41,4.41,0,0,1,1.3,1.32C179.52,235.76,174.2,244.89,166,245.79Zm-5.93-10.91-3.28-5.71c-1,6.15.42,9.2,4,9.7,3.36.46,7.2-.14,7.43-3.86.2-3.23-1.91-6.6-3-9.92-1.4.58-3.68.83-4,1.8C160.39,229.12,160.46,231.71,160.08,234.88Z" transform="translate(101.43 -170.85)"/><path d="M164.32,270l-2.67-4.79-2.85,3.14c-1.83-3.86-1.42-7.44,1.19-9.39s6.71-3.91,9.67-3.35c8.32,1.58,12.12,12.75,7.17,19.62-.8,1.11-2.62,1.49-4,2.21a22.68,22.68,0,0,1-.53-4.37c.18-2.6,1.18-5.26.84-7.75-.2-1.52-2.28-2.79-3.51-4.17-1.23,1.37-2.75,2.58-3.58,4.15-.62,1.18-.35,2.84-.47,4.28Z" transform="translate(101.43 -170.85)"/><path d="M51.33,355.31l-4.41,5c-1.37-1.24-4.06-2.76-3.87-3.67.58-2.71,2.28-5.18,3.55-7.75Z" transform="translate(101.43 -170.85)"/><path d="M63.55,362.69c-2.67-1.89-4.2-7.45-2.4-9.34.72-.75,2.28-.7,3.46-1,.26,1.11.86,2.26.7,3.3C65,357.88,64.23,360.07,63.55,362.69Z" transform="translate(101.43 -170.85)"/><path d="M72.07,352.33c-.27,3.71-.54,7.42-.9,12.29-5.39-4.75-2-8.61-1-12.4Z" transform="translate(101.43 -170.85)"/><path d="M236.48,279.09c.41-2.77.35-5.7,1.31-8.26,2.81-7.54,9.28-7.24,15.81-7.07,5.69.16,8.43,3.18,9.56,8.3,1.55,7,3.23,14-2.33,20.26a15.71,15.71,0,0,1-14.87,5.4c-6.13-1.25-8.15-7.23-8.91-13.1a41.72,41.72,0,0,1,0-5.48Zm22.71,1.4c-2.19-1.43-3.7-2.81-5.47-3.34-.51-.15-2.75,2.7-2.49,3.12a28.48,28.48,0,0,0,4.35,4.66Z" transform="translate(101.43 -170.85)"/><path d="M278.29,304c-3.32,2.34-6.07,5.28-7,4.78-2.72-1.42-4.72-4.25-7-6.52,1.85-1.69,4.17-5.07,5.45-4.71C272.41,298.29,274.57,301,278.29,304Z" transform="translate(101.43 -170.85)"/><path d="M-51,315.68c-2.63,2.15-11.16,3.2-12.6,1.46-.42-.51.4-2.92,1.27-3.47C-59.94,312.2-53.87,313.42-51,315.68Z" transform="translate(101.43 -170.85)"/><path d="M-68.47,325.3a41.71,41.71,0,0,1,5.56-.47c.25,0,.46,1.79.69,2.76l-6,.56Z" transform="translate(101.43 -170.85)"/><path d="M127.57,265.23l-4.17,7.63c-1.29-2.76-3-5.44-3.64-8.35-.2-.87,2.52-3.5,3.56-3.33C124.78,261.43,125.93,263.54,127.57,265.23Z" transform="translate(101.43 -170.85)"/><path d="M125,280.25c-2.43,3.92-5.06,6.6-9.36,3.65-.78-.54-.93-3.77-.55-3.94C118.24,278.56,121.57,277.17,125,280.25Z" transform="translate(101.43 -170.85)"/><path d="M214.7,284.17a33.35,33.35,0,0,1,1.75,5.81c0,.29-2.54.94-3.91,1.43l-.87-6.28Z" transform="translate(101.43 -170.85)"/><path class="cls-1" d="M160.08,234.88c.38-3.17.31-5.76,1.16-8,.36-1,2.64-1.22,4-1.8,1.09,3.32,3.2,6.69,3,9.92-.23,3.72-4.07,4.32-7.43,3.86-3.63-.5-5-3.55-4-9.7Z" transform="translate(101.43 -170.85)"/><path class="cls-1" d="M259.19,280.49l-3.61,4.44a28.48,28.48,0,0,1-4.35-4.66c-.26-.42,2-3.27,2.49-3.12C255.49,277.68,257,279.06,259.19,280.49Z" transform="translate(101.43 -170.85)"/></svg>